<svg xmlns="http://www.w3.org/2000/svg" xmlns:xlink="http://www.w3.org/1999/xlink" width="3840" zoomAndPan="magnify" viewBox="0 0 2880 1619.99993" height="2160" preserveAspectRatio="xMidYMid meet" version="1.0"><defs><g/></defs><g fill="#ffffff" fill-opacity="1"><g transform="translate(85.007868, 537.749934)"><g><path d="M 69.078125 -18.421875 C 84.546875 -18.421875 95.289062 -26.179688 101.3125 -41.703125 L 123.640625 -33.28125 C 118.835938 -21.457031 111.785156 -12.664062 102.484375 -6.90625 C 93.191406 -1.144531 82.054688 1.734375 69.078125 1.734375 C 49.378906 1.734375 34.15625 -3.835938 23.40625 -14.984375 C 12.664062 -26.140625 7.296875 -41.738281 7.296875 -61.78125 C 7.296875 -81.882812 12.476562 -97.320312 22.84375 -108.09375 C 33.21875 -118.863281 48.253906 -124.25 67.953125 -124.25 C 82.316406 -124.25 94.015625 -121.367188 103.046875 -115.609375 C 112.085938 -109.847656 118.429688 -101.375 122.078125 -90.1875 L 99.484375 -84.03125 C 97.578125 -90.164062 93.828125 -95.039062 88.234375 -98.65625 C 82.648438 -102.28125 76.0625 -104.09375 68.46875 -104.09375 C 56.882812 -104.09375 48.09375 -100.5 42.09375 -93.3125 C 36.101562 -86.132812 33.109375 -75.625 33.109375 -61.78125 C 33.109375 -47.707031 36.191406 -36.960938 42.359375 -29.546875 C 48.523438 -22.128906 57.429688 -18.421875 69.078125 -18.421875 Z M 69.078125 -18.421875 "/></g></g></g><g fill="#ffffff" fill-opacity="1"><g transform="translate(213.517087, 537.749934)"><g><path d="M 101.75 -47.09375 C 101.75 -31.863281 97.519531 -19.914062 89.0625 -11.25 C 80.601562 -2.59375 68.898438 1.734375 53.953125 1.734375 C 39.296875 1.734375 27.796875 -2.609375 19.453125 -11.296875 C 11.117188 -19.984375 6.953125 -31.914062 6.953125 -47.09375 C 6.953125 -62.21875 11.117188 -74.109375 19.453125 -82.765625 C 27.796875 -91.421875 39.472656 -95.75 54.484375 -95.75 C 69.828125 -95.75 81.539062 -91.5625 89.625 -83.1875 C 97.707031 -74.820312 101.75 -62.789062 101.75 -47.09375 Z M 76.203125 -47.09375 C 76.203125 -58.269531 74.375 -66.378906 70.71875 -71.421875 C 67.070312 -76.460938 61.773438 -78.984375 54.828125 -78.984375 C 39.992188 -78.984375 32.578125 -68.351562 32.578125 -47.09375 C 32.578125 -36.613281 34.390625 -28.632812 38.015625 -23.15625 C 41.640625 -17.675781 46.867188 -14.9375 53.703125 -14.9375 C 68.703125 -14.9375 76.203125 -25.65625 76.203125 -47.09375 Z M 76.203125 -47.09375 "/></g></g></g><g fill="#ffffff" fill-opacity="1"><g transform="translate(322.215556, 537.749934)"><g><path d="M 73.34375 0 L 73.34375 -52.75 C 73.34375 -69.25 67.75 -77.5 56.5625 -77.5 C 50.65625 -77.5 45.890625 -74.960938 42.265625 -69.890625 C 38.648438 -64.828125 36.84375 -58.328125 36.84375 -50.390625 L 36.84375 0 L 12.421875 0 L 12.421875 -72.984375 C 12.421875 -78.023438 12.347656 -82.148438 12.203125 -85.359375 C 12.054688 -88.578125 11.898438 -91.460938 11.734375 -94.015625 L 35.015625 -94.015625 C 35.191406 -92.910156 35.421875 -89.96875 35.703125 -85.1875 C 35.992188 -80.414062 36.140625 -77.128906 36.140625 -75.328125 L 36.5 -75.328125 C 39.800781 -82.515625 43.941406 -87.726562 48.921875 -90.96875 C 53.898438 -94.21875 59.835938 -95.84375 66.734375 -95.84375 C 76.691406 -95.84375 84.335938 -92.769531 89.671875 -86.625 C 95.003906 -80.488281 97.671875 -71.507812 97.671875 -59.6875 L 97.671875 0 Z M 73.34375 0 "/></g></g></g><g fill="#ffffff" fill-opacity="1"><g transform="translate(430.914026, 537.749934)"><g><path d="M 91.671875 -27.453125 C 91.671875 -18.359375 87.945312 -11.21875 80.5 -6.03125 C 73.0625 -0.851562 62.765625 1.734375 49.609375 1.734375 C 36.691406 1.734375 26.800781 -0.304688 19.9375 -4.390625 C 13.070312 -8.472656 8.507812 -14.828125 6.25 -23.453125 L 27.71875 -26.671875 C 28.9375 -22.210938 31.035156 -19.054688 34.015625 -17.203125 C 37.003906 -15.347656 42.203125 -14.421875 49.609375 -14.421875 C 56.453125 -14.421875 61.4375 -15.289062 64.5625 -17.03125 C 67.6875 -18.769531 69.25 -21.492188 69.25 -25.203125 C 69.25 -28.210938 67.988281 -30.597656 65.46875 -32.359375 C 62.945312 -34.128906 58.675781 -35.625 52.65625 -36.84375 C 38.863281 -39.5625 29.5625 -42.09375 24.75 -44.4375 C 19.945312 -46.789062 16.285156 -49.832031 13.765625 -53.5625 C 11.253906 -57.300781 10 -61.894531 10 -67.34375 C 10 -76.320312 13.457031 -83.316406 20.375 -88.328125 C 27.300781 -93.335938 37.101562 -95.84375 49.78125 -95.84375 C 60.96875 -95.84375 69.960938 -93.671875 76.765625 -89.328125 C 83.578125 -84.984375 87.820312 -78.695312 89.5 -70.46875 L 67.859375 -68.203125 C 67.160156 -72.023438 65.453125 -74.878906 62.734375 -76.765625 C 60.015625 -78.648438 55.695312 -79.59375 49.78125 -79.59375 C 43.988281 -79.59375 39.644531 -78.851562 36.75 -77.375 C 33.851562 -75.894531 32.40625 -73.421875 32.40625 -69.953125 C 32.40625 -67.222656 33.519531 -65.0625 35.75 -63.46875 C 37.976562 -61.875 41.734375 -60.554688 47.015625 -59.515625 C 54.367188 -58.015625 60.894531 -56.46875 66.59375 -54.875 C 72.300781 -53.28125 76.878906 -51.378906 80.328125 -49.171875 C 83.773438 -46.972656 86.523438 -44.148438 88.578125 -40.703125 C 90.640625 -37.253906 91.671875 -32.835938 91.671875 -27.453125 Z M 91.671875 -27.453125 "/></g></g></g><g fill="#ffffff" fill-opacity="1"><g transform="translate(529.880876, 537.749934)"><g><path d="M 50.921875 1.734375 C 36.785156 1.734375 25.921875 -2.445312 18.328125 -10.8125 C 10.742188 -19.1875 6.953125 -31.394531 6.953125 -47.4375 C 6.953125 -62.96875 10.800781 -74.898438 18.5 -83.234375 C 26.207031 -91.578125 37.128906 -95.75 51.265625 -95.75 C 64.765625 -95.75 75.078125 -91.273438 82.203125 -82.328125 C 89.328125 -73.378906 92.890625 -60.273438 92.890625 -43.015625 L 92.890625 -42.3125 L 32.578125 -42.3125 C 32.578125 -33.164062 34.269531 -26.257812 37.65625 -21.59375 C 41.050781 -16.925781 45.878906 -14.59375 52.140625 -14.59375 C 60.765625 -14.59375 66.207031 -18.332031 68.46875 -25.8125 L 91.5 -23.8125 C 84.832031 -6.78125 71.304688 1.734375 50.921875 1.734375 Z M 50.921875 -80.375 C 45.179688 -80.375 40.757812 -78.375 37.65625 -74.375 C 34.5625 -70.382812 32.929688 -64.796875 32.765625 -57.609375 L 69.25 -57.609375 C 68.789062 -65.191406 66.96875 -70.878906 63.78125 -74.671875 C 60.59375 -78.472656 56.304688 -80.375 50.921875 -80.375 Z M 50.921875 -80.375 "/></g></g></g><g fill="#ffffff" fill-opacity="1"><g transform="translate(628.847726, 537.749934)"><g><path d="M 12.515625 -110.953125 L 12.515625 -128.953125 L 36.921875 -128.953125 L 36.921875 -110.953125 Z M 11.984375 36.921875 C 6.191406 36.921875 1.269531 36.660156 -2.78125 36.140625 L -2.78125 18.9375 L 1.65625 19.296875 C 5.820312 19.296875 8.671875 18.378906 10.203125 16.546875 C 11.742188 14.722656 12.515625 10.945312 12.515625 5.21875 L 12.515625 -94.015625 L 36.921875 -94.015625 L 36.921875 11.125 C 36.921875 19.40625 34.820312 25.773438 30.625 30.234375 C 26.425781 34.691406 20.210938 36.921875 11.984375 36.921875 Z M 11.984375 36.921875 "/></g></g></g><g fill="#ffffff" fill-opacity="1"><g transform="translate(678.287709, 537.749934)"><g><path d="M 50.921875 1.734375 C 36.785156 1.734375 25.921875 -2.445312 18.328125 -10.8125 C 10.742188 -19.1875 6.953125 -31.394531 6.953125 -47.4375 C 6.953125 -62.96875 10.800781 -74.898438 18.5 -83.234375 C 26.207031 -91.578125 37.128906 -95.75 51.265625 -95.75 C 64.765625 -95.75 75.078125 -91.273438 82.203125 -82.328125 C 89.328125 -73.378906 92.890625 -60.273438 92.890625 -43.015625 L 92.890625 -42.3125 L 32.578125 -42.3125 C 32.578125 -33.164062 34.269531 -26.257812 37.65625 -21.59375 C 41.050781 -16.925781 45.878906 -14.59375 52.140625 -14.59375 C 60.765625 -14.59375 66.207031 -18.332031 68.46875 -25.8125 L 91.5 -23.8125 C 84.832031 -6.78125 71.304688 1.734375 50.921875 1.734375 Z M 50.921875 -80.375 C 45.179688 -80.375 40.757812 -78.375 37.65625 -74.375 C 34.5625 -70.382812 32.929688 -64.796875 32.765625 -57.609375 L 69.25 -57.609375 C 68.789062 -65.191406 66.96875 -70.878906 63.78125 -74.671875 C 60.59375 -78.472656 56.304688 -80.375 50.921875 -80.375 Z M 50.921875 -80.375 "/></g></g></g><g fill="#ffffff" fill-opacity="1"><g transform="translate(777.254604, 537.749934)"><g><path d="M 12.421875 0 L 12.421875 -71.953125 C 12.421875 -77.097656 12.347656 -81.394531 12.203125 -84.84375 C 12.054688 -88.289062 11.898438 -91.347656 11.734375 -94.015625 L 35.015625 -94.015625 C 35.191406 -92.972656 35.421875 -89.800781 35.703125 -84.5 C 35.992188 -79.195312 36.140625 -75.675781 36.140625 -73.9375 L 36.5 -73.9375 C 38.875 -80.539062 40.988281 -85.191406 42.84375 -87.890625 C 44.695312 -90.585938 46.894531 -92.585938 49.4375 -93.890625 C 51.988281 -95.191406 55.175781 -95.84375 59 -95.84375 C 62.125 -95.84375 64.644531 -95.40625 66.5625 -94.53125 L 66.5625 -74.125 C 62.625 -74.988281 59.144531 -75.421875 56.125 -75.421875 C 50.050781 -75.421875 45.316406 -72.957031 41.921875 -68.03125 C 38.535156 -63.113281 36.84375 -55.816406 36.84375 -46.140625 L 36.84375 0 Z M 12.421875 0 "/></g></g></g><g fill="#ffffff" fill-opacity="1"><g transform="translate(846.505362, 537.749934)"><g><path d="M 12.59375 0 L 12.59375 -94.015625 L 37.015625 -94.015625 L 37.015625 0 Z M 9.90625 -102.796875 L 9.90625 -105.484375 L 31.796875 -130.515625 L 54.21875 -130.515625 L 54.21875 -126.78125 L 24.671875 -102.796875 Z M 9.90625 -102.796875 "/></g></g></g><g fill="#ffffff" fill-opacity="1"><g transform="translate(895.94539, 537.749934)"><g><path d="M 34.140625 1.734375 C 25.046875 1.734375 17.953125 -0.738281 12.859375 -5.6875 C 7.765625 -10.644531 5.21875 -17.613281 5.21875 -26.59375 C 5.21875 -36.320312 8.390625 -43.734375 14.734375 -48.828125 C 21.078125 -53.929688 30.269531 -56.539062 42.3125 -56.65625 L 62.5625 -57 L 62.5625 -61.78125 C 62.5625 -67.914062 61.488281 -72.472656 59.34375 -75.453125 C 57.195312 -78.441406 53.691406 -79.9375 48.828125 -79.9375 C 44.316406 -79.9375 41.003906 -78.90625 38.890625 -76.84375 C 36.773438 -74.789062 35.457031 -71.390625 34.9375 -66.640625 L 9.46875 -67.859375 C 11.03125 -77.015625 15.210938 -83.953125 22.015625 -88.671875 C 28.828125 -93.390625 38.113281 -95.75 49.875 -95.75 C 61.75 -95.75 70.898438 -92.820312 77.328125 -86.96875 C 83.765625 -81.125 86.984375 -72.816406 86.984375 -62.046875 L 86.984375 -27.8125 C 86.984375 -22.53125 87.578125 -18.890625 88.765625 -16.890625 C 89.953125 -14.898438 91.9375 -13.90625 94.71875 -13.90625 C 96.5625 -13.90625 98.351562 -14.078125 100.09375 -14.421875 L 100.09375 -1.21875 C 98.644531 -0.863281 97.34375 -0.539062 96.1875 -0.25 C 95.03125 0.03125 93.867188 0.253906 92.703125 0.421875 C 91.546875 0.597656 90.316406 0.742188 89.015625 0.859375 C 87.710938 0.984375 86.191406 1.046875 84.453125 1.046875 C 78.316406 1.046875 73.785156 -0.457031 70.859375 -3.46875 C 67.929688 -6.488281 66.179688 -10.921875 65.609375 -16.765625 L 65.078125 -16.765625 C 58.242188 -4.429688 47.929688 1.734375 34.140625 1.734375 Z M 62.5625 -43.53125 L 50.046875 -43.359375 C 44.367188 -43.128906 40.34375 -42.503906 37.96875 -41.484375 C 35.59375 -40.472656 33.78125 -38.925781 32.53125 -36.84375 C 31.289062 -34.757812 30.671875 -31.976562 30.671875 -28.5 C 30.671875 -24.039062 31.695312 -20.722656 33.75 -18.546875 C 35.8125 -16.378906 38.550781 -15.296875 41.96875 -15.296875 C 45.789062 -15.296875 49.28125 -16.335938 52.4375 -18.421875 C 55.59375 -20.503906 58.066406 -23.382812 59.859375 -27.0625 C 61.660156 -30.738281 62.5625 -34.632812 62.5625 -38.75 Z M 62.5625 -43.53125 "/></g></g></g><g fill="#ffffff" fill-opacity="1"><g transform="translate(994.91224, 537.749934)"><g/></g></g><g fill="#ffffff" fill-opacity="1"><g transform="translate(1044.352269, 537.749934)"><g><path d="M 73.34375 0 C 73.101562 -0.863281 72.820312 -3.046875 72.5 -6.546875 C 72.1875 -10.054688 72.03125 -12.972656 72.03125 -15.296875 L 71.6875 -15.296875 C 66.414062 -3.941406 56.394531 1.734375 41.625 1.734375 C 30.675781 1.734375 22.21875 -2.535156 16.25 -11.078125 C 10.28125 -19.617188 7.296875 -31.566406 7.296875 -46.921875 C 7.296875 -62.503906 10.4375 -74.535156 16.71875 -83.015625 C 23.007812 -91.503906 31.921875 -95.75 43.453125 -95.75 C 50.109375 -95.75 55.851562 -94.359375 60.6875 -91.578125 C 65.53125 -88.796875 69.253906 -84.65625 71.859375 -79.15625 L 72.03125 -79.15625 L 71.859375 -94.625 L 71.859375 -128.953125 L 96.28125 -128.953125 L 96.28125 -20.5 C 96.28125 -14.707031 96.507812 -7.875 96.96875 0 Z M 72.203125 -47.53125 C 72.203125 -57.664062 70.507812 -65.46875 67.125 -70.9375 C 63.738281 -76.414062 58.742188 -79.15625 52.140625 -79.15625 C 45.585938 -79.15625 40.71875 -76.503906 37.53125 -71.203125 C 34.351562 -65.898438 32.765625 -57.804688 32.765625 -46.921875 C 32.765625 -25.597656 39.160156 -14.9375 51.953125 -14.9375 C 58.390625 -14.9375 63.375 -17.757812 66.90625 -23.40625 C 70.4375 -29.0625 72.203125 -37.101562 72.203125 -47.53125 Z M 72.203125 -47.53125 "/></g></g></g><g fill="#ffffff" fill-opacity="1"><g transform="translate(1153.050715, 537.749934)"><g><path d="M 50.921875 1.734375 C 36.785156 1.734375 25.921875 -2.445312 18.328125 -10.8125 C 10.742188 -19.1875 6.953125 -31.394531 6.953125 -47.4375 C 6.953125 -62.96875 10.800781 -74.898438 18.5 -83.234375 C 26.207031 -91.578125 37.128906 -95.75 51.265625 -95.75 C 64.765625 -95.75 75.078125 -91.273438 82.203125 -82.328125 C 89.328125 -73.378906 92.890625 -60.273438 92.890625 -43.015625 L 92.890625 -42.3125 L 32.578125 -42.3125 C 32.578125 -33.164062 34.269531 -26.257812 37.65625 -21.59375 C 41.050781 -16.925781 45.878906 -14.59375 52.140625 -14.59375 C 60.765625 -14.59375 66.207031 -18.332031 68.46875 -25.8125 L 91.5 -23.8125 C 84.832031 -6.78125 71.304688 1.734375 50.921875 1.734375 Z M 50.921875 -80.375 C 45.179688 -80.375 40.757812 -78.375 37.65625 -74.375 C 34.5625 -70.382812 32.929688 -64.796875 32.765625 -57.609375 L 69.25 -57.609375 C 68.789062 -65.191406 66.96875 -70.878906 63.78125 -74.671875 C 60.59375 -78.472656 56.304688 -80.375 50.921875 -80.375 Z M 50.921875 -80.375 "/></g></g></g><g fill="#ffffff" fill-opacity="1"><g transform="translate(1252.017565, 537.749934)"><g/></g></g><g fill="#ffffff" fill-opacity="1"><g transform="translate(1301.457594, 537.749934)"><g><path d="M 11.90625 0 L 11.90625 -122.421875 L 108.171875 -122.421875 L 108.171875 -102.625 L 37.53125 -102.625 L 37.53125 -71.859375 L 102.875 -71.859375 L 102.875 -52.046875 L 37.53125 -52.046875 L 37.53125 -19.8125 L 111.734375 -19.8125 L 111.734375 0 Z M 11.90625 0 "/></g></g></g><g fill="#ffffff" fill-opacity="1"><g transform="translate(1420.148288, 537.749934)"><g><path d="M 67.78125 0 L 67.78125 -52.75 C 67.78125 -69.25 63.03125 -77.5 53.53125 -77.5 C 48.601562 -77.5 44.585938 -74.976562 41.484375 -69.9375 C 38.390625 -64.90625 36.84375 -58.390625 36.84375 -50.390625 L 36.84375 0 L 12.421875 0 L 12.421875 -72.984375 C 12.421875 -78.023438 12.347656 -82.148438 12.203125 -85.359375 C 12.054688 -88.578125 11.898438 -91.460938 11.734375 -94.015625 L 35.015625 -94.015625 C 35.191406 -92.910156 35.421875 -89.96875 35.703125 -85.1875 C 35.992188 -80.414062 36.140625 -77.128906 36.140625 -75.328125 L 36.5 -75.328125 C 39.507812 -82.515625 43.257812 -87.726562 47.75 -90.96875 C 52.238281 -94.21875 57.609375 -95.84375 63.859375 -95.84375 C 78.222656 -95.84375 86.941406 -89.003906 90.015625 -75.328125 L 90.546875 -75.328125 C 93.722656 -82.628906 97.539062 -87.875 102 -91.0625 C 106.46875 -94.25 112.148438 -95.84375 119.046875 -95.84375 C 128.191406 -95.84375 135.164062 -92.726562 139.96875 -86.5 C 144.78125 -80.269531 147.1875 -71.332031 147.1875 -59.6875 L 147.1875 0 L 122.953125 0 L 122.953125 -52.75 C 122.953125 -69.25 118.203125 -77.5 108.703125 -77.5 C 103.953125 -77.5 100.054688 -75.195312 97.015625 -70.59375 C 93.972656 -65.988281 92.304688 -59.632812 92.015625 -51.53125 L 92.015625 0 Z M 67.78125 0 "/></g></g></g><g fill="#ffffff" fill-opacity="1"><g transform="translate(1578.373645, 537.749934)"><g><path d="M 101.40625 -47.4375 C 101.40625 -31.738281 98.257812 -19.617188 91.96875 -11.078125 C 85.6875 -2.535156 76.8125 1.734375 65.34375 1.734375 C 58.738281 1.734375 52.988281 0.300781 48.09375 -2.5625 C 43.195312 -5.425781 39.445312 -9.550781 36.84375 -14.9375 L 36.328125 -14.9375 C 36.671875 -13.207031 36.84375 -7.9375 36.84375 0.875 L 36.84375 36.921875 L 12.421875 36.921875 L 12.421875 -72.375 C 12.421875 -81.238281 12.191406 -88.453125 11.734375 -94.015625 L 35.453125 -94.015625 C 35.742188 -92.972656 35.988281 -90.914062 36.1875 -87.84375 C 36.394531 -84.769531 36.5 -81.726562 36.5 -78.71875 L 36.84375 -78.71875 C 42.34375 -90.25 52.363281 -96.015625 66.90625 -96.015625 C 77.851562 -96.015625 86.335938 -91.800781 92.359375 -83.375 C 98.390625 -74.945312 101.40625 -62.96875 101.40625 -47.4375 Z M 75.9375 -47.4375 C 75.9375 -68.53125 69.476562 -79.078125 56.5625 -79.078125 C 50.070312 -79.078125 45.101562 -76.238281 41.65625 -70.5625 C 38.21875 -64.882812 36.5 -56.945312 36.5 -46.75 C 36.5 -36.613281 38.21875 -28.773438 41.65625 -23.234375 C 45.101562 -17.703125 50.015625 -14.9375 56.390625 -14.9375 C 69.421875 -14.9375 75.9375 -25.769531 75.9375 -47.4375 Z M 75.9375 -47.4375 "/></g></g></g><g fill="#ffffff" fill-opacity="1"><g transform="translate(1687.072182, 537.749934)"><g><path d="M 12.421875 0 L 12.421875 -128.953125 L 36.84375 -128.953125 L 36.84375 0 Z M 12.421875 0 "/></g></g></g><g fill="#ffffff" fill-opacity="1"><g transform="translate(1736.51212, 537.749934)"><g><path d="M 50.921875 1.734375 C 36.785156 1.734375 25.921875 -2.445312 18.328125 -10.8125 C 10.742188 -19.1875 6.953125 -31.394531 6.953125 -47.4375 C 6.953125 -62.96875 10.800781 -74.898438 18.5 -83.234375 C 26.207031 -91.578125 37.128906 -95.75 51.265625 -95.75 C 64.765625 -95.75 75.078125 -91.273438 82.203125 -82.328125 C 89.328125 -73.378906 92.890625 -60.273438 92.890625 -43.015625 L 92.890625 -42.3125 L 32.578125 -42.3125 C 32.578125 -33.164062 34.269531 -26.257812 37.65625 -21.59375 C 41.050781 -16.925781 45.878906 -14.59375 52.140625 -14.59375 C 60.765625 -14.59375 66.207031 -18.332031 68.46875 -25.8125 L 91.5 -23.8125 C 84.832031 -6.78125 71.304688 1.734375 50.921875 1.734375 Z M 50.921875 -80.375 C 45.179688 -80.375 40.757812 -78.375 37.65625 -74.375 C 34.5625 -70.382812 32.929688 -64.796875 32.765625 -57.609375 L 69.25 -57.609375 C 68.789062 -65.191406 66.96875 -70.878906 63.78125 -74.671875 C 60.59375 -78.472656 56.304688 -80.375 50.921875 -80.375 Z M 50.921875 -80.375 "/></g></g></g><g fill="#ffffff" fill-opacity="1"><g transform="translate(1835.478969, 537.749934)"><g><path d="M 101.75 -47.09375 C 101.75 -31.863281 97.519531 -19.914062 89.0625 -11.25 C 80.601562 -2.59375 68.898438 1.734375 53.953125 1.734375 C 39.296875 1.734375 27.796875 -2.609375 19.453125 -11.296875 C 11.117188 -19.984375 6.953125 -31.914062 6.953125 -47.09375 C 6.953125 -62.21875 11.117188 -74.109375 19.453125 -82.765625 C 27.796875 -91.421875 39.472656 -95.75 54.484375 -95.75 C 69.828125 -95.75 81.539062 -91.5625 89.625 -83.1875 C 97.707031 -74.820312 101.75 -62.789062 101.75 -47.09375 Z M 76.203125 -47.09375 C 76.203125 -58.269531 74.375 -66.378906 70.71875 -71.421875 C 67.070312 -76.460938 61.773438 -78.984375 54.828125 -78.984375 C 39.992188 -78.984375 32.578125 -68.351562 32.578125 -47.09375 C 32.578125 -36.613281 34.390625 -28.632812 38.015625 -23.15625 C 41.640625 -17.675781 46.867188 -14.9375 53.703125 -14.9375 C 68.703125 -14.9375 76.203125 -25.65625 76.203125 -47.09375 Z M 76.203125 -47.09375 "/></g></g></g><g fill="#ffffff" fill-opacity="1"><g transform="translate(1944.177507, 537.749934)"><g><path d="M 37.53125 -5.734375 C 37.53125 1.210938 36.789062 7.351562 35.3125 12.6875 C 33.84375 18.019531 31.457031 22.972656 28.15625 27.546875 L 12.078125 27.546875 C 15.492188 23.429688 18.273438 18.910156 20.421875 13.984375 C 22.566406 9.066406 23.640625 4.40625 23.640625 0 L 12.421875 0 L 12.421875 -26.5 L 37.53125 -26.5 Z M 37.53125 -5.734375 "/></g></g></g><g fill="#ffffff" fill-opacity="1"><g transform="translate(1993.617445, 537.749934)"><g/></g></g><g fill="#ffffff" fill-opacity="1"><g transform="translate(2043.057382, 537.749934)"><g><path d="M 11.90625 0 L 11.90625 -122.421875 L 108.171875 -122.421875 L 108.171875 -102.625 L 37.53125 -102.625 L 37.53125 -71.859375 L 102.875 -71.859375 L 102.875 -52.046875 L 37.53125 -52.046875 L 37.53125 -19.8125 L 111.734375 -19.8125 L 111.734375 0 Z M 11.90625 0 "/></g></g></g><g fill="#ffffff" fill-opacity="1"><g transform="translate(2161.748168, 537.749934)"><g><path d="M 67.78125 0 L 67.78125 -52.75 C 67.78125 -69.25 63.03125 -77.5 53.53125 -77.5 C 48.601562 -77.5 44.585938 -74.976562 41.484375 -69.9375 C 38.390625 -64.90625 36.84375 -58.390625 36.84375 -50.390625 L 36.84375 0 L 12.421875 0 L 12.421875 -72.984375 C 12.421875 -78.023438 12.347656 -82.148438 12.203125 -85.359375 C 12.054688 -88.578125 11.898438 -91.460938 11.734375 -94.015625 L 35.015625 -94.015625 C 35.191406 -92.910156 35.421875 -89.96875 35.703125 -85.1875 C 35.992188 -80.414062 36.140625 -77.128906 36.140625 -75.328125 L 36.5 -75.328125 C 39.507812 -82.515625 43.257812 -87.726562 47.75 -90.96875 C 52.238281 -94.21875 57.609375 -95.84375 63.859375 -95.84375 C 78.222656 -95.84375 86.941406 -89.003906 90.015625 -75.328125 L 90.546875 -75.328125 C 93.722656 -82.628906 97.539062 -87.875 102 -91.0625 C 106.46875 -94.25 112.148438 -95.84375 119.046875 -95.84375 C 128.191406 -95.84375 135.164062 -92.726562 139.96875 -86.5 C 144.78125 -80.269531 147.1875 -71.332031 147.1875 -59.6875 L 147.1875 0 L 122.953125 0 L 122.953125 -52.75 C 122.953125 -69.25 118.203125 -77.5 108.703125 -77.5 C 103.953125 -77.5 100.054688 -75.195312 97.015625 -70.59375 C 93.972656 -65.988281 92.304688 -59.632812 92.015625 -51.53125 L 92.015625 0 Z M 67.78125 0 "/></g></g></g><g fill="#ffffff" fill-opacity="1"><g transform="translate(2319.973435, 537.749934)"><g><path d="M 101.40625 -47.4375 C 101.40625 -31.738281 98.257812 -19.617188 91.96875 -11.078125 C 85.6875 -2.535156 76.8125 1.734375 65.34375 1.734375 C 58.738281 1.734375 52.988281 0.300781 48.09375 -2.5625 C 43.195312 -5.425781 39.445312 -9.550781 36.84375 -14.9375 L 36.328125 -14.9375 C 36.671875 -13.207031 36.84375 -7.9375 36.84375 0.875 L 36.84375 36.921875 L 12.421875 36.921875 L 12.421875 -72.375 C 12.421875 -81.238281 12.191406 -88.453125 11.734375 -94.015625 L 35.453125 -94.015625 C 35.742188 -92.972656 35.988281 -90.914062 36.1875 -87.84375 C 36.394531 -84.769531 36.5 -81.726562 36.5 -78.71875 L 36.84375 -78.71875 C 42.34375 -90.25 52.363281 -96.015625 66.90625 -96.015625 C 77.851562 -96.015625 86.335938 -91.800781 92.359375 -83.375 C 98.390625 -74.945312 101.40625 -62.96875 101.40625 -47.4375 Z M 75.9375 -47.4375 C 75.9375 -68.53125 69.476562 -79.078125 56.5625 -79.078125 C 50.070312 -79.078125 45.101562 -76.238281 41.65625 -70.5625 C 38.21875 -64.882812 36.5 -56.945312 36.5 -46.75 C 36.5 -36.613281 38.21875 -28.773438 41.65625 -23.234375 C 45.101562 -17.703125 50.015625 -14.9375 56.390625 -14.9375 C 69.421875 -14.9375 75.9375 -25.769531 75.9375 -47.4375 Z M 75.9375 -47.4375 "/></g></g></g><g fill="#ffffff" fill-opacity="1"><g transform="translate(2428.671972, 537.749934)"><g><path d="M 12.421875 0 L 12.421875 -71.953125 C 12.421875 -77.097656 12.347656 -81.394531 12.203125 -84.84375 C 12.054688 -88.289062 11.898438 -91.347656 11.734375 -94.015625 L 35.015625 -94.015625 C 35.191406 -92.972656 35.421875 -89.800781 35.703125 -84.5 C 35.992188 -79.195312 36.140625 -75.675781 36.140625 -73.9375 L 36.5 -73.9375 C 38.875 -80.539062 40.988281 -85.191406 42.84375 -87.890625 C 44.695312 -90.585938 46.894531 -92.585938 49.4375 -93.890625 C 51.988281 -95.191406 55.175781 -95.84375 59 -95.84375 C 62.125 -95.84375 64.644531 -95.40625 66.5625 -94.53125 L 66.5625 -74.125 C 62.625 -74.988281 59.144531 -75.421875 56.125 -75.421875 C 50.050781 -75.421875 45.316406 -72.957031 41.921875 -68.03125 C 38.535156 -63.113281 36.84375 -55.816406 36.84375 -46.140625 L 36.84375 0 Z M 12.421875 0 "/></g></g></g><g fill="#ffffff" fill-opacity="1"><g transform="translate(2497.922638, 537.749934)"><g><path d="M 50.921875 1.734375 C 36.785156 1.734375 25.921875 -2.445312 18.328125 -10.8125 C 10.742188 -19.1875 6.953125 -31.394531 6.953125 -47.4375 C 6.953125 -62.96875 10.800781 -74.898438 18.5 -83.234375 C 26.207031 -91.578125 37.128906 -95.75 51.265625 -95.75 C 64.765625 -95.75 75.078125 -91.273438 82.203125 -82.328125 C 89.328125 -73.378906 92.890625 -60.273438 92.890625 -43.015625 L 92.890625 -42.3125 L 32.578125 -42.3125 C 32.578125 -33.164062 34.269531 -26.257812 37.65625 -21.59375 C 41.050781 -16.925781 45.878906 -14.59375 52.140625 -14.59375 C 60.765625 -14.59375 66.207031 -18.332031 68.46875 -25.8125 L 91.5 -23.8125 C 84.832031 -6.78125 71.304688 1.734375 50.921875 1.734375 Z M 50.921875 -80.375 C 45.179688 -80.375 40.757812 -78.375 37.65625 -74.375 C 34.5625 -70.382812 32.929688 -64.796875 32.765625 -57.609375 L 69.25 -57.609375 C 68.789062 -65.191406 66.96875 -70.878906 63.78125 -74.671875 C 60.59375 -78.472656 56.304688 -80.375 50.921875 -80.375 Z M 50.921875 -80.375 "/></g></g></g><g fill="#ffffff" fill-opacity="1"><g transform="translate(2596.889488, 537.749934)"><g><path d="M 91.671875 -27.453125 C 91.671875 -18.359375 87.945312 -11.21875 80.5 -6.03125 C 73.0625 -0.851562 62.765625 1.734375 49.609375 1.734375 C 36.691406 1.734375 26.800781 -0.304688 19.9375 -4.390625 C 13.070312 -8.472656 8.507812 -14.828125 6.25 -23.453125 L 27.71875 -26.671875 C 28.9375 -22.210938 31.035156 -19.054688 34.015625 -17.203125 C 37.003906 -15.347656 42.203125 -14.421875 49.609375 -14.421875 C 56.453125 -14.421875 61.4375 -15.289062 64.5625 -17.03125 C 67.6875 -18.769531 69.25 -21.492188 69.25 -25.203125 C 69.25 -28.210938 67.988281 -30.597656 65.46875 -32.359375 C 62.945312 -34.128906 58.675781 -35.625 52.65625 -36.84375 C 38.863281 -39.5625 29.5625 -42.09375 24.75 -44.4375 C 19.945312 -46.789062 16.285156 -49.832031 13.765625 -53.5625 C 11.253906 -57.300781 10 -61.894531 10 -67.34375 C 10 -76.320312 13.457031 -83.316406 20.375 -88.328125 C 27.300781 -93.335938 37.101562 -95.84375 49.78125 -95.84375 C 60.96875 -95.84375 69.960938 -93.671875 76.765625 -89.328125 C 83.578125 -84.984375 87.820312 -78.695312 89.5 -70.46875 L 67.859375 -68.203125 C 67.160156 -72.023438 65.453125 -74.878906 62.734375 -76.765625 C 60.015625 -78.648438 55.695312 -79.59375 49.78125 -79.59375 C 43.988281 -79.59375 39.644531 -78.851562 36.75 -77.375 C 33.851562 -75.894531 32.40625 -73.421875 32.40625 -69.953125 C 32.40625 -67.222656 33.519531 -65.0625 35.75 -63.46875 C 37.976562 -61.875 41.734375 -60.554688 47.015625 -59.515625 C 54.367188 -58.015625 60.894531 -56.46875 66.59375 -54.875 C 72.300781 -53.28125 76.878906 -51.378906 80.328125 -49.171875 C 83.773438 -46.972656 86.523438 -44.148438 88.578125 -40.703125 C 90.640625 -37.253906 91.671875 -32.835938 91.671875 -27.453125 Z M 91.671875 -27.453125 "/></g></g></g><g fill="#ffffff" fill-opacity="1"><g transform="translate(2695.856338, 537.749934)"><g><path d="M 34.140625 1.734375 C 25.046875 1.734375 17.953125 -0.738281 12.859375 -5.6875 C 7.765625 -10.644531 5.21875 -17.613281 5.21875 -26.59375 C 5.21875 -36.320312 8.390625 -43.734375 14.734375 -48.828125 C 21.078125 -53.929688 30.269531 -56.539062 42.3125 -56.65625 L 62.5625 -57 L 62.5625 -61.78125 C 62.5625 -67.914062 61.488281 -72.472656 59.34375 -75.453125 C 57.195312 -78.441406 53.691406 -79.9375 48.828125 -79.9375 C 44.316406 -79.9375 41.003906 -78.90625 38.890625 -76.84375 C 36.773438 -74.789062 35.457031 -71.390625 34.9375 -66.640625 L 9.46875 -67.859375 C 11.03125 -77.015625 15.210938 -83.953125 22.015625 -88.671875 C 28.828125 -93.390625 38.113281 -95.75 49.875 -95.75 C 61.75 -95.75 70.898438 -92.820312 77.328125 -86.96875 C 83.765625 -81.125 86.984375 -72.816406 86.984375 -62.046875 L 86.984375 -27.8125 C 86.984375 -22.53125 87.578125 -18.890625 88.765625 -16.890625 C 89.953125 -14.898438 91.9375 -13.90625 94.71875 -13.90625 C 96.5625 -13.90625 98.351562 -14.078125 100.09375 -14.421875 L 100.09375 -1.21875 C 98.644531 -0.863281 97.34375 -0.539062 96.1875 -0.25 C 95.03125 0.03125 93.867188 0.253906 92.703125 0.421875 C 91.546875 0.597656 90.316406 0.742188 89.015625 0.859375 C 87.710938 0.984375 86.191406 1.046875 84.453125 1.046875 C 78.316406 1.046875 73.785156 -0.457031 70.859375 -3.46875 C 67.929688 -6.488281 66.179688 -10.921875 65.609375 -16.765625 L 65.078125 -16.765625 C 58.242188 -4.429688 47.929688 1.734375 34.140625 1.734375 Z M 62.5625 -43.53125 L 50.046875 -43.359375 C 44.367188 -43.128906 40.34375 -42.503906 37.96875 -41.484375 C 35.59375 -40.472656 33.78125 -38.925781 32.53125 -36.84375 C 31.289062 -34.757812 30.671875 -31.976562 30.671875 -28.5 C 30.671875 -24.039062 31.695312 -20.722656 33.75 -18.546875 C 35.8125 -16.378906 38.550781 -15.296875 41.96875 -15.296875 C 45.789062 -15.296875 49.28125 -16.335938 52.4375 -18.421875 C 55.59375 -20.503906 58.066406 -23.382812 59.859375 -27.0625 C 61.660156 -30.738281 62.5625 -34.632812 62.5625 -38.75 Z M 62.5625 -43.53125 "/></g></g></g><g fill="#ffffff" fill-opacity="1"><g transform="translate(85.007868, 759.749916)"><g><path d="M 24.59375 36.921875 C 18.738281 36.921875 13.609375 36.546875 9.203125 35.796875 L 9.203125 18.421875 C 12.273438 18.878906 15.085938 19.109375 17.640625 19.109375 C 21.117188 19.109375 24 18.554688 26.28125 17.453125 C 28.570312 16.359375 30.628906 14.535156 32.453125 11.984375 C 34.273438 9.441406 36.316406 5.128906 38.578125 -0.953125 L 1.390625 -94.015625 L 27.203125 -94.015625 L 41.96875 -49.96875 C 44.28125 -43.644531 47.207031 -33.96875 50.75 -20.9375 L 52.921875 -29.203125 L 58.5625 -49.609375 L 72.46875 -94.015625 L 98.015625 -94.015625 L 60.828125 4.953125 C 55.835938 17.003906 50.664062 25.34375 45.3125 29.96875 C 39.957031 34.601562 33.050781 36.921875 24.59375 36.921875 Z M 24.59375 36.921875 "/></g></g></g><g fill="#ffffff" fill-opacity="1"><g transform="translate(183.97474, 759.749916)"><g/></g></g><g fill="#ffffff" fill-opacity="1"><g transform="translate(233.414734, 759.749916)"><g><path d="M 67.171875 -102.625 L 67.171875 0 L 41.53125 0 L 41.53125 -102.625 L 2 -102.625 L 2 -122.421875 L 106.796875 -122.421875 L 106.796875 -102.625 Z M 67.171875 -102.625 "/></g></g></g><g fill="#ffffff" fill-opacity="1"><g transform="translate(342.113193, 759.749916)"><g><path d="M 12.421875 0 L 12.421875 -71.953125 C 12.421875 -77.097656 12.347656 -81.394531 12.203125 -84.84375 C 12.054688 -88.289062 11.898438 -91.347656 11.734375 -94.015625 L 35.015625 -94.015625 C 35.191406 -92.972656 35.421875 -89.800781 35.703125 -84.5 C 35.992188 -79.195312 36.140625 -75.675781 36.140625 -73.9375 L 36.5 -73.9375 C 38.875 -80.539062 40.988281 -85.191406 42.84375 -87.890625 C 44.695312 -90.585938 46.894531 -92.585938 49.4375 -93.890625 C 51.988281 -95.191406 55.175781 -95.84375 59 -95.84375 C 62.125 -95.84375 64.644531 -95.40625 66.5625 -94.53125 L 66.5625 -74.125 C 62.625 -74.988281 59.144531 -75.421875 56.125 -75.421875 C 50.050781 -75.421875 45.316406 -72.957031 41.921875 -68.03125 C 38.535156 -63.113281 36.84375 -55.816406 36.84375 -46.140625 L 36.84375 0 Z M 12.421875 0 "/></g></g></g><g fill="#ffffff" fill-opacity="1"><g transform="translate(411.36395, 759.749916)"><g><path d="M 34.140625 1.734375 C 25.046875 1.734375 17.953125 -0.738281 12.859375 -5.6875 C 7.765625 -10.644531 5.21875 -17.613281 5.21875 -26.59375 C 5.21875 -36.320312 8.390625 -43.734375 14.734375 -48.828125 C 21.078125 -53.929688 30.269531 -56.539062 42.3125 -56.65625 L 62.5625 -57 L 62.5625 -61.78125 C 62.5625 -67.914062 61.488281 -72.472656 59.34375 -75.453125 C 57.195312 -78.441406 53.691406 -79.9375 48.828125 -79.9375 C 44.316406 -79.9375 41.003906 -78.90625 38.890625 -76.84375 C 36.773438 -74.789062 35.457031 -71.390625 34.9375 -66.640625 L 9.46875 -67.859375 C 11.03125 -77.015625 15.210938 -83.953125 22.015625 -88.671875 C 28.828125 -93.390625 38.113281 -95.75 49.875 -95.75 C 61.75 -95.75 70.898438 -92.820312 77.328125 -86.96875 C 83.765625 -81.125 86.984375 -72.816406 86.984375 -62.046875 L 86.984375 -27.8125 C 86.984375 -22.53125 87.578125 -18.890625 88.765625 -16.890625 C 89.953125 -14.898438 91.9375 -13.90625 94.71875 -13.90625 C 96.5625 -13.90625 98.351562 -14.078125 100.09375 -14.421875 L 100.09375 -1.21875 C 98.644531 -0.863281 97.34375 -0.539062 96.1875 -0.25 C 95.03125 0.03125 93.867188 0.253906 92.703125 0.421875 C 91.546875 0.597656 90.316406 0.742188 89.015625 0.859375 C 87.710938 0.984375 86.191406 1.046875 84.453125 1.046875 C 78.316406 1.046875 73.785156 -0.457031 70.859375 -3.46875 C 67.929688 -6.488281 66.179688 -10.921875 65.609375 -16.765625 L 65.078125 -16.765625 C 58.242188 -4.429688 47.929688 1.734375 34.140625 1.734375 Z M 62.5625 -43.53125 L 50.046875 -43.359375 C 44.367188 -43.128906 40.34375 -42.503906 37.96875 -41.484375 C 35.59375 -40.472656 33.78125 -38.925781 32.53125 -36.84375 C 31.289062 -34.757812 30.671875 -31.976562 30.671875 -28.5 C 30.671875 -24.039062 31.695312 -20.722656 33.75 -18.546875 C 35.8125 -16.378906 38.550781 -15.296875 41.96875 -15.296875 C 45.789062 -15.296875 49.28125 -16.335938 52.4375 -18.421875 C 55.59375 -20.503906 58.066406 -23.382812 59.859375 -27.0625 C 61.660156 -30.738281 62.5625 -34.632812 62.5625 -38.75 Z M 62.5625 -43.53125 "/></g></g></g><g fill="#ffffff" fill-opacity="1"><g transform="translate(510.3308, 759.749916)"><g><path d="M 101.40625 -47.359375 C 101.40625 -31.828125 98.289062 -19.757812 92.0625 -11.15625 C 85.832031 -2.5625 76.925781 1.734375 65.34375 1.734375 C 58.675781 1.734375 52.910156 0.285156 48.046875 -2.609375 C 43.179688 -5.503906 39.445312 -9.675781 36.84375 -15.125 L 36.671875 -15.125 C 36.671875 -13.09375 36.539062 -10.3125 36.28125 -6.78125 C 36.019531 -3.25 35.742188 -0.988281 35.453125 0 L 11.734375 0 C 12.191406 -5.382812 12.421875 -12.539062 12.421875 -21.46875 L 12.421875 -128.953125 L 36.84375 -128.953125 L 36.84375 -92.96875 L 36.5 -77.6875 L 36.84375 -77.6875 C 42.34375 -89.726562 52.363281 -95.75 66.90625 -95.75 C 78.03125 -95.75 86.5625 -91.535156 92.5 -83.109375 C 98.4375 -74.679688 101.40625 -62.765625 101.40625 -47.359375 Z M 75.9375 -47.359375 C 75.9375 -58.015625 74.375 -65.921875 71.25 -71.078125 C 68.125 -76.234375 63.285156 -78.8125 56.734375 -78.8125 C 50.128906 -78.8125 45.101562 -76.046875 41.65625 -70.515625 C 38.21875 -64.984375 36.5 -57.003906 36.5 -46.578125 C 36.5 -36.609375 38.191406 -28.84375 41.578125 -23.28125 C 44.960938 -17.71875 49.957031 -14.9375 56.5625 -14.9375 C 69.476562 -14.9375 75.9375 -25.742188 75.9375 -47.359375 Z M 75.9375 -47.359375 "/></g></g></g><g fill="#ffffff" fill-opacity="1"><g transform="translate(619.029246, 759.749916)"><g><path d="M 34.140625 1.734375 C 25.046875 1.734375 17.953125 -0.738281 12.859375 -5.6875 C 7.765625 -10.644531 5.21875 -17.613281 5.21875 -26.59375 C 5.21875 -36.320312 8.390625 -43.734375 14.734375 -48.828125 C 21.078125 -53.929688 30.269531 -56.539062 42.3125 -56.65625 L 62.5625 -57 L 62.5625 -61.78125 C 62.5625 -67.914062 61.488281 -72.472656 59.34375 -75.453125 C 57.195312 -78.441406 53.691406 -79.9375 48.828125 -79.9375 C 44.316406 -79.9375 41.003906 -78.90625 38.890625 -76.84375 C 36.773438 -74.789062 35.457031 -71.390625 34.9375 -66.640625 L 9.46875 -67.859375 C 11.03125 -77.015625 15.210938 -83.953125 22.015625 -88.671875 C 28.828125 -93.390625 38.113281 -95.75 49.875 -95.75 C 61.75 -95.75 70.898438 -92.820312 77.328125 -86.96875 C 83.765625 -81.125 86.984375 -72.816406 86.984375 -62.046875 L 86.984375 -27.8125 C 86.984375 -22.53125 87.578125 -18.890625 88.765625 -16.890625 C 89.953125 -14.898438 91.9375 -13.90625 94.71875 -13.90625 C 96.5625 -13.90625 98.351562 -14.078125 100.09375 -14.421875 L 100.09375 -1.21875 C 98.644531 -0.863281 97.34375 -0.539062 96.1875 -0.25 C 95.03125 0.03125 93.867188 0.253906 92.703125 0.421875 C 91.546875 0.597656 90.316406 0.742188 89.015625 0.859375 C 87.710938 0.984375 86.191406 1.046875 84.453125 1.046875 C 78.316406 1.046875 73.785156 -0.457031 70.859375 -3.46875 C 67.929688 -6.488281 66.179688 -10.921875 65.609375 -16.765625 L 65.078125 -16.765625 C 58.242188 -4.429688 47.929688 1.734375 34.140625 1.734375 Z M 62.5625 -43.53125 L 50.046875 -43.359375 C 44.367188 -43.128906 40.34375 -42.503906 37.96875 -41.484375 C 35.59375 -40.472656 33.78125 -38.925781 32.53125 -36.84375 C 31.289062 -34.757812 30.671875 -31.976562 30.671875 -28.5 C 30.671875 -24.039062 31.695312 -20.722656 33.75 -18.546875 C 35.8125 -16.378906 38.550781 -15.296875 41.96875 -15.296875 C 45.789062 -15.296875 49.28125 -16.335938 52.4375 -18.421875 C 55.59375 -20.503906 58.066406 -23.382812 59.859375 -27.0625 C 61.660156 -30.738281 62.5625 -34.632812 62.5625 -38.75 Z M 62.5625 -43.53125 "/></g></g></g><g fill="#ffffff" fill-opacity="1"><g transform="translate(717.996096, 759.749916)"><g><path d="M 12.515625 -110.953125 L 12.515625 -128.953125 L 36.921875 -128.953125 L 36.921875 -110.953125 Z M 11.984375 36.921875 C 6.191406 36.921875 1.269531 36.660156 -2.78125 36.140625 L -2.78125 18.9375 L 1.65625 19.296875 C 5.820312 19.296875 8.671875 18.378906 10.203125 16.546875 C 11.742188 14.722656 12.515625 10.945312 12.515625 5.21875 L 12.515625 -94.015625 L 36.921875 -94.015625 L 36.921875 11.125 C 36.921875 19.40625 34.820312 25.773438 30.625 30.234375 C 26.425781 34.691406 20.210938 36.921875 11.984375 36.921875 Z M 11.984375 36.921875 "/></g></g></g><g fill="#ffffff" fill-opacity="1"><g transform="translate(767.436079, 759.749916)"><g><path d="M 101.75 -47.09375 C 101.75 -31.863281 97.519531 -19.914062 89.0625 -11.25 C 80.601562 -2.59375 68.898438 1.734375 53.953125 1.734375 C 39.296875 1.734375 27.796875 -2.609375 19.453125 -11.296875 C 11.117188 -19.984375 6.953125 -31.914062 6.953125 -47.09375 C 6.953125 -62.21875 11.117188 -74.109375 19.453125 -82.765625 C 27.796875 -91.421875 39.472656 -95.75 54.484375 -95.75 C 69.828125 -95.75 81.539062 -91.5625 89.625 -83.1875 C 97.707031 -74.820312 101.75 -62.789062 101.75 -47.09375 Z M 76.203125 -47.09375 C 76.203125 -58.269531 74.375 -66.378906 70.71875 -71.421875 C 67.070312 -76.460938 61.773438 -78.984375 54.828125 -78.984375 C 39.992188 -78.984375 32.578125 -68.351562 32.578125 -47.09375 C 32.578125 -36.613281 34.390625 -28.632812 38.015625 -23.15625 C 41.640625 -17.675781 46.867188 -14.9375 53.703125 -14.9375 C 68.703125 -14.9375 76.203125 -25.65625 76.203125 -47.09375 Z M 76.203125 -47.09375 "/></g></g></g><g fill="#ffffff" fill-opacity="1"><g transform="translate(876.134571, 759.749916)"><g/></g></g><g fill="#ffffff" fill-opacity="1"><g transform="translate(925.5746, 759.749916)"><g><path d="M 98.453125 0 L 87.59375 -31.28125 L 40.921875 -31.28125 L 30.0625 0 L 4.4375 0 L 49.09375 -122.421875 L 79.328125 -122.421875 L 123.8125 0 Z M 64.21875 -103.578125 L 63.6875 -101.65625 C 63.113281 -99.570312 62.421875 -97.195312 61.609375 -94.53125 C 60.796875 -91.875 55.8125 -77.222656 46.65625 -50.578125 L 81.84375 -50.578125 L 69.78125 -85.765625 L 66.03125 -97.578125 Z M 64.21875 -103.578125 "/></g></g></g><g fill="#ffffff" fill-opacity="1"><g transform="translate(1054.083774, 759.749916)"><g><path d="M 35.453125 -94.015625 L 35.453125 -41.265625 C 35.453125 -24.765625 41.015625 -16.515625 52.140625 -16.515625 C 58.046875 -16.515625 62.804688 -19.046875 66.421875 -24.109375 C 70.046875 -29.179688 71.859375 -35.6875 71.859375 -43.625 L 71.859375 -94.015625 L 96.28125 -94.015625 L 96.28125 -21.03125 C 96.28125 -13.03125 96.507812 -6.019531 96.96875 0 L 73.6875 0 C 72.988281 -8.34375 72.640625 -14.570312 72.640625 -18.6875 L 72.203125 -18.6875 C 68.960938 -11.5625 64.835938 -6.375 59.828125 -3.125 C 54.816406 0.113281 48.863281 1.734375 41.96875 1.734375 C 32 1.734375 24.347656 -1.316406 19.015625 -7.421875 C 13.691406 -13.535156 11.03125 -22.503906 11.03125 -34.328125 L 11.03125 -94.015625 Z M 35.453125 -94.015625 "/></g></g></g><g fill="#ffffff" fill-opacity="1"><g transform="translate(1162.78222, 759.749916)"><g><path d="M 36.5 1.5625 C 29.3125 1.5625 23.773438 -0.390625 19.890625 -4.296875 C 16.015625 -8.210938 14.078125 -14.140625 14.078125 -22.078125 L 14.078125 -77.5 L 2.171875 -77.5 L 2.171875 -94.015625 L 15.296875 -94.015625 L 22.9375 -116.09375 L 38.234375 -116.09375 L 38.234375 -94.015625 L 56.046875 -94.015625 L 56.046875 -77.5 L 38.234375 -77.5 L 38.234375 -28.671875 C 38.234375 -24.097656 39.101562 -20.722656 40.84375 -18.546875 C 42.582031 -16.378906 45.273438 -15.296875 48.921875 -15.296875 C 50.828125 -15.296875 53.550781 -15.703125 57.09375 -16.515625 L 57.09375 -1.390625 C 51.0625 0.578125 44.195312 1.5625 36.5 1.5625 Z M 36.5 1.5625 "/></g></g></g><g fill="#ffffff" fill-opacity="1"><g transform="translate(1222.04073, 759.749916)"><g><path d="M 101.75 -47.09375 C 101.75 -31.863281 97.519531 -19.914062 89.0625 -11.25 C 80.601562 -2.59375 68.898438 1.734375 53.953125 1.734375 C 39.296875 1.734375 27.796875 -2.609375 19.453125 -11.296875 C 11.117188 -19.984375 6.953125 -31.914062 6.953125 -47.09375 C 6.953125 -62.21875 11.117188 -74.109375 19.453125 -82.765625 C 27.796875 -91.421875 39.472656 -95.75 54.484375 -95.75 C 69.828125 -95.75 81.539062 -91.5625 89.625 -83.1875 C 97.707031 -74.820312 101.75 -62.789062 101.75 -47.09375 Z M 76.203125 -47.09375 C 76.203125 -58.269531 74.375 -66.378906 70.71875 -71.421875 C 67.070312 -76.460938 61.773438 -78.984375 54.828125 -78.984375 C 39.992188 -78.984375 32.578125 -68.351562 32.578125 -47.09375 C 32.578125 -36.613281 34.390625 -28.632812 38.015625 -23.15625 C 41.640625 -17.675781 46.867188 -14.9375 53.703125 -14.9375 C 68.703125 -14.9375 76.203125 -25.65625 76.203125 -47.09375 Z M 40.40625 -102.796875 L 40.40625 -105.484375 L 62.296875 -130.515625 L 84.71875 -130.515625 L 84.71875 -126.78125 L 55.171875 -102.796875 Z M 40.40625 -102.796875 "/></g></g></g><g fill="#ffffff" fill-opacity="1"><g transform="translate(1330.739176, 759.749916)"><g><path d="M 73.34375 0 L 73.34375 -52.75 C 73.34375 -69.25 67.75 -77.5 56.5625 -77.5 C 50.65625 -77.5 45.890625 -74.960938 42.265625 -69.890625 C 38.648438 -64.828125 36.84375 -58.328125 36.84375 -50.390625 L 36.84375 0 L 12.421875 0 L 12.421875 -72.984375 C 12.421875 -78.023438 12.347656 -82.148438 12.203125 -85.359375 C 12.054688 -88.578125 11.898438 -91.460938 11.734375 -94.015625 L 35.015625 -94.015625 C 35.191406 -92.910156 35.421875 -89.96875 35.703125 -85.1875 C 35.992188 -80.414062 36.140625 -77.128906 36.140625 -75.328125 L 36.5 -75.328125 C 39.800781 -82.515625 43.941406 -87.726562 48.921875 -90.96875 C 53.898438 -94.21875 59.835938 -95.84375 66.734375 -95.84375 C 76.691406 -95.84375 84.335938 -92.769531 89.671875 -86.625 C 95.003906 -80.488281 97.671875 -71.507812 97.671875 -59.6875 L 97.671875 0 Z M 73.34375 0 "/></g></g></g><g fill="#ffffff" fill-opacity="1"><g transform="translate(1439.437623, 759.749916)"><g><path d="M 101.75 -47.09375 C 101.75 -31.863281 97.519531 -19.914062 89.0625 -11.25 C 80.601562 -2.59375 68.898438 1.734375 53.953125 1.734375 C 39.296875 1.734375 27.796875 -2.609375 19.453125 -11.296875 C 11.117188 -19.984375 6.953125 -31.914062 6.953125 -47.09375 C 6.953125 -62.21875 11.117188 -74.109375 19.453125 -82.765625 C 27.796875 -91.421875 39.472656 -95.75 54.484375 -95.75 C 69.828125 -95.75 81.539062 -91.5625 89.625 -83.1875 C 97.707031 -74.820312 101.75 -62.789062 101.75 -47.09375 Z M 76.203125 -47.09375 C 76.203125 -58.269531 74.375 -66.378906 70.71875 -71.421875 C 67.070312 -76.460938 61.773438 -78.984375 54.828125 -78.984375 C 39.992188 -78.984375 32.578125 -68.351562 32.578125 -47.09375 C 32.578125 -36.613281 34.390625 -28.632812 38.015625 -23.15625 C 41.640625 -17.675781 46.867188 -14.9375 53.703125 -14.9375 C 68.703125 -14.9375 76.203125 -25.65625 76.203125 -47.09375 Z M 76.203125 -47.09375 "/></g></g></g><g fill="#ffffff" fill-opacity="1"><g transform="translate(1548.136069, 759.749916)"><g><path d="M 67.78125 0 L 67.78125 -52.75 C 67.78125 -69.25 63.03125 -77.5 53.53125 -77.5 C 48.601562 -77.5 44.585938 -74.976562 41.484375 -69.9375 C 38.390625 -64.90625 36.84375 -58.390625 36.84375 -50.390625 L 36.84375 0 L 12.421875 0 L 12.421875 -72.984375 C 12.421875 -78.023438 12.347656 -82.148438 12.203125 -85.359375 C 12.054688 -88.578125 11.898438 -91.460938 11.734375 -94.015625 L 35.015625 -94.015625 C 35.191406 -92.910156 35.421875 -89.96875 35.703125 -85.1875 C 35.992188 -80.414062 36.140625 -77.128906 36.140625 -75.328125 L 36.5 -75.328125 C 39.507812 -82.515625 43.257812 -87.726562 47.75 -90.96875 C 52.238281 -94.21875 57.609375 -95.84375 63.859375 -95.84375 C 78.222656 -95.84375 86.941406 -89.003906 90.015625 -75.328125 L 90.546875 -75.328125 C 93.722656 -82.628906 97.539062 -87.875 102 -91.0625 C 106.46875 -94.25 112.148438 -95.84375 119.046875 -95.84375 C 128.191406 -95.84375 135.164062 -92.726562 139.96875 -86.5 C 144.78125 -80.269531 147.1875 -71.332031 147.1875 -59.6875 L 147.1875 0 L 122.953125 0 L 122.953125 -52.75 C 122.953125 -69.25 118.203125 -77.5 108.703125 -77.5 C 103.953125 -77.5 100.054688 -75.195312 97.015625 -70.59375 C 93.972656 -65.988281 92.304688 -59.632812 92.015625 -51.53125 L 92.015625 0 Z M 67.78125 0 "/></g></g></g><g fill="#ffffff" fill-opacity="1"><g transform="translate(1706.361425, 759.749916)"><g><path d="M 101.75 -47.09375 C 101.75 -31.863281 97.519531 -19.914062 89.0625 -11.25 C 80.601562 -2.59375 68.898438 1.734375 53.953125 1.734375 C 39.296875 1.734375 27.796875 -2.609375 19.453125 -11.296875 C 11.117188 -19.984375 6.953125 -31.914062 6.953125 -47.09375 C 6.953125 -62.21875 11.117188 -74.109375 19.453125 -82.765625 C 27.796875 -91.421875 39.472656 -95.75 54.484375 -95.75 C 69.828125 -95.75 81.539062 -91.5625 89.625 -83.1875 C 97.707031 -74.820312 101.75 -62.789062 101.75 -47.09375 Z M 76.203125 -47.09375 C 76.203125 -58.269531 74.375 -66.378906 70.71875 -71.421875 C 67.070312 -76.460938 61.773438 -78.984375 54.828125 -78.984375 C 39.992188 -78.984375 32.578125 -68.351562 32.578125 -47.09375 C 32.578125 -36.613281 34.390625 -28.632812 38.015625 -23.15625 C 41.640625 -17.675781 46.867188 -14.9375 53.703125 -14.9375 C 68.703125 -14.9375 76.203125 -25.65625 76.203125 -47.09375 Z M 76.203125 -47.09375 "/></g></g></g><g fill="#ffffff" fill-opacity="1"><g transform="translate(85.007868, 981.749897)"><g><path d="M 120 -62.46875 C 120 -49.84375 117.535156 -38.796875 112.609375 -29.328125 C 107.679688 -19.859375 100.695312 -12.601562 91.65625 -7.5625 C 82.625 -2.519531 72.203125 0 60.390625 0 L 14.59375 0 L 14.59375 -122.421875 L 55.09375 -122.421875 C 75.832031 -122.421875 91.832031 -117.222656 103.09375 -106.828125 C 114.363281 -96.429688 120 -81.644531 120 -62.46875 Z M 103.3125 -62.46875 C 103.3125 -77.644531 99.15625 -89.21875 90.84375 -97.1875 C 82.53125 -105.15625 70.492188 -109.140625 54.734375 -109.140625 L 31.1875 -109.140625 L 31.1875 -13.296875 L 58.484375 -13.296875 C 67.460938 -13.296875 75.351562 -15.265625 82.15625 -19.203125 C 88.957031 -23.140625 94.179688 -28.816406 97.828125 -36.234375 C 101.484375 -43.648438 103.3125 -52.394531 103.3125 -62.46875 Z M 103.3125 -62.46875 "/></g></g></g><g fill="#ffffff" fill-opacity="1"><g transform="translate(213.517087, 981.749897)"><g><path d="M 11.90625 -114 L 11.90625 -128.953125 L 27.546875 -128.953125 L 27.546875 -114 Z M 11.90625 0 L 11.90625 -94.015625 L 27.546875 -94.015625 L 27.546875 0 Z M 11.90625 0 "/></g></g></g><g fill="#ffffff" fill-opacity="1"><g transform="translate(253.051706, 981.749897)"><g><path d="M 12.34375 0 L 12.34375 -72.125 C 12.34375 -78.726562 12.164062 -86.023438 11.8125 -94.015625 L 26.59375 -94.015625 C 27.050781 -83.359375 27.28125 -76.957031 27.28125 -74.8125 L 27.625 -74.8125 C 30.125 -82.863281 32.992188 -88.363281 36.234375 -91.3125 C 39.472656 -94.269531 44.050781 -95.75 49.96875 -95.75 C 52.050781 -95.75 54.164062 -95.460938 56.3125 -94.890625 L 56.3125 -80.546875 C 54.21875 -81.128906 51.4375 -81.421875 47.96875 -81.421875 C 41.476562 -81.421875 36.523438 -78.625 33.109375 -73.03125 C 29.691406 -67.4375 27.984375 -59.425781 27.984375 -49 L 27.984375 0 Z M 12.34375 0 "/></g></g></g><g fill="#ffffff" fill-opacity="1"><g transform="translate(312.31017, 981.749897)"><g><path d="M 23.984375 -43.703125 C 23.984375 -32.929688 26.210938 -24.617188 30.671875 -18.765625 C 35.128906 -12.921875 41.644531 -10 50.21875 -10 C 57 -10 62.429688 -11.359375 66.515625 -14.078125 C 70.597656 -16.796875 73.363281 -20.242188 74.8125 -24.421875 L 88.546875 -20.5 C 82.921875 -5.675781 70.144531 1.734375 50.21875 1.734375 C 36.320312 1.734375 25.738281 -2.40625 18.46875 -10.6875 C 11.195312 -18.96875 7.5625 -31.273438 7.5625 -47.609375 C 7.5625 -63.140625 11.195312 -75.046875 18.46875 -83.328125 C 25.738281 -91.609375 36.117188 -95.75 49.609375 -95.75 C 77.242188 -95.75 91.0625 -79.097656 91.0625 -45.796875 L 91.0625 -43.703125 Z M 74.90625 -55.703125 C 74.03125 -65.609375 71.503906 -72.832031 67.328125 -77.375 C 63.160156 -81.925781 57.171875 -84.203125 49.359375 -84.203125 C 41.765625 -84.203125 35.75 -81.664062 31.3125 -76.59375 C 26.882812 -71.519531 24.5 -64.554688 24.15625 -55.703125 Z M 74.90625 -55.703125 "/></g></g></g><g fill="#ffffff" fill-opacity="1"><g transform="translate(411.277042, 981.749897)"><g><path d="M 23.890625 -47.4375 C 23.890625 -34.925781 25.859375 -25.65625 29.796875 -19.625 C 33.742188 -13.601562 39.679688 -10.59375 47.609375 -10.59375 C 53.171875 -10.59375 57.820312 -12.097656 61.5625 -15.109375 C 65.300781 -18.128906 67.601562 -22.765625 68.46875 -29.015625 L 84.28125 -27.984375 C 83.0625 -18.941406 79.207031 -11.726562 72.71875 -6.34375 C 66.238281 -0.957031 58.015625 1.734375 48.046875 1.734375 C 34.898438 1.734375 24.863281 -2.421875 17.9375 -10.734375 C 11.019531 -19.046875 7.5625 -31.164062 7.5625 -47.09375 C 7.5625 -62.90625 11.035156 -74.96875 17.984375 -83.28125 C 24.929688 -91.59375 34.894531 -95.75 47.875 -95.75 C 57.488281 -95.75 65.46875 -93.257812 71.8125 -88.28125 C 78.15625 -83.300781 82.140625 -76.4375 83.765625 -67.6875 L 67.6875 -66.46875 C 66.875 -71.6875 64.816406 -75.828125 61.515625 -78.890625 C 58.210938 -81.960938 53.519531 -83.5 47.4375 -83.5 C 39.15625 -83.5 33.160156 -80.75 29.453125 -75.25 C 25.742188 -69.75 23.890625 -60.476562 23.890625 -47.4375 Z M 23.890625 -47.4375 "/></g></g></g><g fill="#ffffff" fill-opacity="1"><g transform="translate(500.251667, 981.749897)"><g><path d="M 23.890625 -47.4375 C 23.890625 -34.925781 25.859375 -25.65625 29.796875 -19.625 C 33.742188 -13.601562 39.679688 -10.59375 47.609375 -10.59375 C 53.171875 -10.59375 57.820312 -12.097656 61.5625 -15.109375 C 65.300781 -18.128906 67.601562 -22.765625 68.46875 -29.015625 L 84.28125 -27.984375 C 83.0625 -18.941406 79.207031 -11.726562 72.71875 -6.34375 C 66.238281 -0.957031 58.015625 1.734375 48.046875 1.734375 C 34.898438 1.734375 24.863281 -2.421875 17.9375 -10.734375 C 11.019531 -19.046875 7.5625 -31.164062 7.5625 -47.09375 C 7.5625 -62.90625 11.035156 -74.96875 17.984375 -83.28125 C 24.929688 -91.59375 34.894531 -95.75 47.875 -95.75 C 57.488281 -95.75 65.46875 -93.257812 71.8125 -88.28125 C 78.15625 -83.300781 82.140625 -76.4375 83.765625 -67.6875 L 67.6875 -66.46875 C 66.875 -71.6875 64.816406 -75.828125 61.515625 -78.890625 C 58.210938 -81.960938 53.519531 -83.5 47.4375 -83.5 C 39.15625 -83.5 33.160156 -80.75 29.453125 -75.25 C 25.742188 -69.75 23.890625 -60.476562 23.890625 -47.4375 Z M 23.890625 -47.4375 "/></g></g></g><g fill="#ffffff" fill-opacity="1"><g transform="translate(589.226269, 981.749897)"><g><path d="M 11.90625 -114 L 11.90625 -128.953125 L 27.546875 -128.953125 L 27.546875 -114 Z M 11.90625 0 L 11.90625 -94.015625 L 27.546875 -94.015625 L 27.546875 0 Z M 11.90625 0 "/></g></g></g><g fill="#ffffff" fill-opacity="1"><g transform="translate(628.760888, 981.749897)"><g><path d="M 91.5 -47.09375 C 91.5 -30.644531 87.878906 -18.394531 80.640625 -10.34375 C 73.398438 -2.289062 62.882812 1.734375 49.09375 1.734375 C 35.363281 1.734375 24.992188 -2.445312 17.984375 -10.8125 C 10.972656 -19.1875 7.46875 -31.28125 7.46875 -47.09375 C 7.46875 -79.53125 21.515625 -95.75 49.609375 -95.75 C 63.972656 -95.75 74.546875 -91.796875 81.328125 -83.890625 C 88.109375 -75.984375 91.5 -63.71875 91.5 -47.09375 Z M 75.078125 -47.09375 C 75.078125 -60.070312 73.148438 -69.5 69.296875 -75.375 C 65.441406 -81.257812 58.96875 -84.203125 49.875 -84.203125 C 40.71875 -84.203125 34.097656 -81.203125 30.015625 -75.203125 C 25.929688 -69.210938 23.890625 -59.84375 23.890625 -47.09375 C 23.890625 -34.695312 25.898438 -25.382812 29.921875 -19.15625 C 33.953125 -12.925781 40.285156 -9.8125 48.921875 -9.8125 C 58.304688 -9.8125 65.007812 -12.820312 69.03125 -18.84375 C 73.0625 -24.875 75.078125 -34.289062 75.078125 -47.09375 Z M 37.4375 -104.359375 L 37.4375 -106.09375 L 56.296875 -131.03125 L 74.28125 -131.03125 L 74.28125 -128.515625 L 45.609375 -104.359375 Z M 37.4375 -104.359375 "/></g></g></g><g fill="#ffffff" fill-opacity="1"><g transform="translate(727.727784, 981.749897)"><g><path d="M 71.6875 0 L 71.6875 -59.609375 C 71.6875 -65.804688 71.078125 -70.613281 69.859375 -74.03125 C 68.640625 -77.445312 66.695312 -79.90625 64.03125 -81.40625 C 61.375 -82.914062 57.46875 -83.671875 52.3125 -83.671875 C 44.78125 -83.671875 38.84375 -81.09375 34.5 -75.9375 C 30.15625 -70.78125 27.984375 -63.628906 27.984375 -54.484375 L 27.984375 0 L 12.34375 0 L 12.34375 -73.9375 C 12.34375 -84.882812 12.164062 -91.578125 11.8125 -94.015625 L 26.59375 -94.015625 C 26.644531 -93.722656 26.695312 -92.941406 26.75 -91.671875 C 26.8125 -90.398438 26.882812 -88.9375 26.96875 -87.28125 C 27.0625 -85.632812 27.164062 -82.519531 27.28125 -77.9375 L 27.546875 -77.9375 C 31.140625 -84.425781 35.296875 -89.015625 40.015625 -91.703125 C 44.734375 -94.398438 50.597656 -95.75 57.609375 -95.75 C 67.921875 -95.75 75.460938 -93.1875 80.234375 -88.0625 C 85.015625 -82.9375 87.40625 -74.46875 87.40625 -62.65625 L 87.40625 0 Z M 71.6875 0 "/></g></g></g><g fill="#ffffff" fill-opacity="1"><g transform="translate(826.694634, 981.749897)"><g/></g></g><g fill="#ffffff" fill-opacity="1"><g transform="translate(876.134663, 981.749897)"><g><path d="M 8.953125 -61.78125 C 8.953125 -81.644531 14.28125 -97.019531 24.9375 -107.90625 C 35.59375 -118.800781 50.566406 -124.25 69.859375 -124.25 C 83.410156 -124.25 94.414062 -121.960938 102.875 -117.390625 C 111.332031 -112.816406 117.847656 -105.488281 122.421875 -95.40625 L 106.609375 -90.71875 C 103.140625 -97.664062 98.347656 -102.734375 92.234375 -105.921875 C 86.117188 -109.109375 78.515625 -110.703125 69.421875 -110.703125 C 55.285156 -110.703125 44.484375 -106.425781 37.015625 -97.875 C 29.546875 -89.332031 25.8125 -77.300781 25.8125 -61.78125 C 25.8125 -46.3125 29.773438 -34.101562 37.703125 -25.15625 C 45.640625 -16.207031 56.617188 -11.734375 70.640625 -11.734375 C 78.640625 -11.734375 86.097656 -12.945312 93.015625 -15.375 C 99.941406 -17.8125 105.546875 -21.113281 109.828125 -25.28125 L 109.828125 -47.359375 L 73.25 -47.359375 L 73.25 -61.265625 L 125.125 -61.265625 L 125.125 -19.03125 C 118.632812 -12.425781 110.679688 -7.3125 101.265625 -3.6875 C 91.859375 -0.0703125 81.648438 1.734375 70.640625 1.734375 C 57.835938 1.734375 46.800781 -0.8125 37.53125 -5.90625 C 28.269531 -11.007812 21.191406 -18.351562 16.296875 -27.9375 C 11.398438 -37.519531 8.953125 -48.800781 8.953125 -61.78125 Z M 8.953125 -61.78125 "/></g></g></g><g fill="#ffffff" fill-opacity="1"><g transform="translate(1014.549296, 981.749897)"><g><path d="M 23.984375 -43.703125 C 23.984375 -32.929688 26.210938 -24.617188 30.671875 -18.765625 C 35.128906 -12.921875 41.644531 -10 50.21875 -10 C 57 -10 62.429688 -11.359375 66.515625 -14.078125 C 70.597656 -16.796875 73.363281 -20.242188 74.8125 -24.421875 L 88.546875 -20.5 C 82.921875 -5.675781 70.144531 1.734375 50.21875 1.734375 C 36.320312 1.734375 25.738281 -2.40625 18.46875 -10.6875 C 11.195312 -18.96875 7.5625 -31.273438 7.5625 -47.609375 C 7.5625 -63.140625 11.195312 -75.046875 18.46875 -83.328125 C 25.738281 -91.609375 36.117188 -95.75 49.609375 -95.75 C 77.242188 -95.75 91.0625 -79.097656 91.0625 -45.796875 L 91.0625 -43.703125 Z M 74.90625 -55.703125 C 74.03125 -65.609375 71.503906 -72.832031 67.328125 -77.375 C 63.160156 -81.925781 57.171875 -84.203125 49.359375 -84.203125 C 41.765625 -84.203125 35.75 -81.664062 31.3125 -76.59375 C 26.882812 -71.519531 24.5 -64.554688 24.15625 -55.703125 Z M 74.90625 -55.703125 "/></g></g></g><g fill="#ffffff" fill-opacity="1"><g transform="translate(1113.516146, 981.749897)"><g><path d="M 71.6875 0 L 71.6875 -59.609375 C 71.6875 -65.804688 71.078125 -70.613281 69.859375 -74.03125 C 68.640625 -77.445312 66.695312 -79.90625 64.03125 -81.40625 C 61.375 -82.914062 57.46875 -83.671875 52.3125 -83.671875 C 44.78125 -83.671875 38.84375 -81.09375 34.5 -75.9375 C 30.15625 -70.78125 27.984375 -63.628906 27.984375 -54.484375 L 27.984375 0 L 12.34375 0 L 12.34375 -73.9375 C 12.34375 -84.882812 12.164062 -91.578125 11.8125 -94.015625 L 26.59375 -94.015625 C 26.644531 -93.722656 26.695312 -92.941406 26.75 -91.671875 C 26.8125 -90.398438 26.882812 -88.9375 26.96875 -87.28125 C 27.0625 -85.632812 27.164062 -82.519531 27.28125 -77.9375 L 27.546875 -77.9375 C 31.140625 -84.425781 35.296875 -89.015625 40.015625 -91.703125 C 44.734375 -94.398438 50.597656 -95.75 57.609375 -95.75 C 67.921875 -95.75 75.460938 -93.1875 80.234375 -88.0625 C 85.015625 -82.9375 87.40625 -74.46875 87.40625 -62.65625 L 87.40625 0 Z M 71.6875 0 "/></g></g></g><g fill="#ffffff" fill-opacity="1"><g transform="translate(1212.482996, 981.749897)"><g><path d="M 23.984375 -43.703125 C 23.984375 -32.929688 26.210938 -24.617188 30.671875 -18.765625 C 35.128906 -12.921875 41.644531 -10 50.21875 -10 C 57 -10 62.429688 -11.359375 66.515625 -14.078125 C 70.597656 -16.796875 73.363281 -20.242188 74.8125 -24.421875 L 88.546875 -20.5 C 82.921875 -5.675781 70.144531 1.734375 50.21875 1.734375 C 36.320312 1.734375 25.738281 -2.40625 18.46875 -10.6875 C 11.195312 -18.96875 7.5625 -31.273438 7.5625 -47.609375 C 7.5625 -63.140625 11.195312 -75.046875 18.46875 -83.328125 C 25.738281 -91.609375 36.117188 -95.75 49.609375 -95.75 C 77.242188 -95.75 91.0625 -79.097656 91.0625 -45.796875 L 91.0625 -43.703125 Z M 74.90625 -55.703125 C 74.03125 -65.609375 71.503906 -72.832031 67.328125 -77.375 C 63.160156 -81.925781 57.171875 -84.203125 49.359375 -84.203125 C 41.765625 -84.203125 35.75 -81.664062 31.3125 -76.59375 C 26.882812 -71.519531 24.5 -64.554688 24.15625 -55.703125 Z M 74.90625 -55.703125 "/></g></g></g><g fill="#ffffff" fill-opacity="1"><g transform="translate(1311.449845, 981.749897)"><g><path d="M 12.34375 0 L 12.34375 -72.125 C 12.34375 -78.726562 12.164062 -86.023438 11.8125 -94.015625 L 26.59375 -94.015625 C 27.050781 -83.359375 27.28125 -76.957031 27.28125 -74.8125 L 27.625 -74.8125 C 30.125 -82.863281 32.992188 -88.363281 36.234375 -91.3125 C 39.472656 -94.269531 44.050781 -95.75 49.96875 -95.75 C 52.050781 -95.75 54.164062 -95.460938 56.3125 -94.890625 L 56.3125 -80.546875 C 54.21875 -81.128906 51.4375 -81.421875 47.96875 -81.421875 C 41.476562 -81.421875 36.523438 -78.625 33.109375 -73.03125 C 29.691406 -67.4375 27.984375 -59.425781 27.984375 -49 L 27.984375 0 Z M 12.34375 0 "/></g></g></g><g fill="#ffffff" fill-opacity="1"><g transform="translate(1370.708355, 981.749897)"><g><path d="M 35.96875 1.734375 C 26.53125 1.734375 19.4375 -0.753906 14.6875 -5.734375 C 9.9375 -10.710938 7.5625 -17.546875 7.5625 -26.234375 C 7.5625 -35.972656 10.757812 -43.445312 17.15625 -48.65625 C 23.5625 -53.875 33.890625 -56.65625 48.140625 -57 L 69.25 -57.34375 L 69.25 -62.46875 C 69.25 -70.113281 67.625 -75.585938 64.375 -78.890625 C 61.132812 -82.191406 56.039062 -83.84375 49.09375 -83.84375 C 42.082031 -83.84375 36.984375 -82.65625 33.796875 -80.28125 C 30.609375 -77.90625 28.695312 -74.113281 28.0625 -68.90625 L 11.734375 -70.375 C 14.398438 -87.289062 26.96875 -95.75 49.4375 -95.75 C 61.257812 -95.75 70.148438 -93.039062 76.109375 -87.625 C 82.078125 -82.207031 85.0625 -74.375 85.0625 -64.125 L 85.0625 -23.640625 C 85.0625 -19.003906 85.671875 -15.507812 86.890625 -13.15625 C 88.109375 -10.8125 90.425781 -9.640625 93.84375 -9.640625 C 95.351562 -9.640625 97.0625 -9.84375 98.96875 -10.25 L 98.96875 -0.515625 C 95.03125 0.410156 91.003906 0.875 86.890625 0.875 C 81.097656 0.875 76.882812 -0.644531 74.25 -3.6875 C 71.613281 -6.726562 70.125 -11.492188 69.78125 -17.984375 L 69.25 -17.984375 C 65.25 -10.804688 60.597656 -5.722656 55.296875 -2.734375 C 50.003906 0.242188 43.5625 1.734375 35.96875 1.734375 Z M 39.53125 -10 C 45.269531 -10 50.367188 -11.300781 54.828125 -13.90625 C 59.285156 -16.507812 62.800781 -20.082031 65.375 -24.625 C 67.957031 -29.175781 69.25 -33.859375 69.25 -38.671875 L 69.25 -46.40625 L 52.140625 -46.046875 C 44.773438 -45.929688 39.195312 -45.175781 35.40625 -43.78125 C 31.613281 -42.394531 28.703125 -40.253906 26.671875 -37.359375 C 24.648438 -34.460938 23.640625 -30.671875 23.640625 -25.984375 C 23.640625 -20.878906 25.015625 -16.9375 27.765625 -14.15625 C 30.515625 -11.382812 34.4375 -10 39.53125 -10 Z M 39.53125 -10 "/></g></g></g><g fill="#ffffff" fill-opacity="1"><g transform="translate(1469.675205, 981.749897)"><g><path d="M 11.984375 0 L 11.984375 -128.953125 L 27.625 -128.953125 L 27.625 0 Z M 11.984375 0 "/></g></g></g><g fill="#ffffff" fill-opacity="1"><g transform="translate(1509.209778, 981.749897)"><g/></g></g><g fill="#ffffff" fill-opacity="1"><g transform="translate(1558.649807, 981.749897)"><g><path d="M 71.34375 -15.125 C 68.445312 -9.09375 64.609375 -4.773438 59.828125 -2.171875 C 55.046875 0.429688 49.125 1.734375 42.0625 1.734375 C 30.1875 1.734375 21.453125 -2.257812 15.859375 -10.25 C 10.265625 -18.25 7.46875 -30.359375 7.46875 -46.578125 C 7.46875 -79.359375 19 -95.75 42.0625 -95.75 C 49.1875 -95.75 55.125 -94.445312 59.875 -91.84375 C 64.625 -89.238281 68.445312 -85.097656 71.34375 -79.421875 L 71.515625 -79.421875 L 71.34375 -89.9375 L 71.34375 -128.953125 L 86.984375 -128.953125 L 86.984375 -19.375 C 86.984375 -9.582031 87.15625 -3.125 87.5 0 L 72.546875 0 C 72.378906 -0.925781 72.191406 -3.066406 71.984375 -6.421875 C 71.785156 -9.785156 71.6875 -12.6875 71.6875 -15.125 Z M 23.890625 -47.09375 C 23.890625 -33.945312 25.628906 -24.535156 29.109375 -18.859375 C 32.585938 -13.179688 38.234375 -10.34375 46.046875 -10.34375 C 54.910156 -10.34375 61.34375 -13.410156 65.34375 -19.546875 C 69.34375 -25.691406 71.34375 -35.222656 71.34375 -48.140625 C 71.34375 -60.585938 69.34375 -69.707031 65.34375 -75.5 C 61.34375 -81.300781 54.96875 -84.203125 46.21875 -84.203125 C 38.34375 -84.203125 32.648438 -81.289062 29.140625 -75.46875 C 25.640625 -69.644531 23.890625 -60.1875 23.890625 -47.09375 Z M 23.890625 -47.09375 "/></g></g></g><g fill="#ffffff" fill-opacity="1"><g transform="translate(1657.616749, 981.749897)"><g><path d="M 23.984375 -43.703125 C 23.984375 -32.929688 26.210938 -24.617188 30.671875 -18.765625 C 35.128906 -12.921875 41.644531 -10 50.21875 -10 C 57 -10 62.429688 -11.359375 66.515625 -14.078125 C 70.597656 -16.796875 73.363281 -20.242188 74.8125 -24.421875 L 88.546875 -20.5 C 82.921875 -5.675781 70.144531 1.734375 50.21875 1.734375 C 36.320312 1.734375 25.738281 -2.40625 18.46875 -10.6875 C 11.195312 -18.96875 7.5625 -31.273438 7.5625 -47.609375 C 7.5625 -63.140625 11.195312 -75.046875 18.46875 -83.328125 C 25.738281 -91.609375 36.117188 -95.75 49.609375 -95.75 C 77.242188 -95.75 91.0625 -79.097656 91.0625 -45.796875 L 91.0625 -43.703125 Z M 74.90625 -55.703125 C 74.03125 -65.609375 71.503906 -72.832031 67.328125 -77.375 C 63.160156 -81.925781 57.171875 -84.203125 49.359375 -84.203125 C 41.765625 -84.203125 35.75 -81.664062 31.3125 -76.59375 C 26.882812 -71.519531 24.5 -64.554688 24.15625 -55.703125 Z M 74.90625 -55.703125 "/></g></g></g><g fill="#ffffff" fill-opacity="1"><g transform="translate(1756.583598, 981.749897)"><g/></g></g><g fill="#ffffff" fill-opacity="1"><g transform="translate(1806.023536, 981.749897)"><g><path d="M 62.5625 -108.875 L 62.5625 0 L 46.046875 0 L 46.046875 -108.875 L 4 -108.875 L 4 -122.421875 L 104.609375 -122.421875 L 104.609375 -108.875 Z M 62.5625 -108.875 "/></g></g></g><g fill="#ffffff" fill-opacity="1"><g transform="translate(1914.722074, 981.749897)"><g><path d="M 12.34375 0 L 12.34375 -72.125 C 12.34375 -78.726562 12.164062 -86.023438 11.8125 -94.015625 L 26.59375 -94.015625 C 27.050781 -83.359375 27.28125 -76.957031 27.28125 -74.8125 L 27.625 -74.8125 C 30.125 -82.863281 32.992188 -88.363281 36.234375 -91.3125 C 39.472656 -94.269531 44.050781 -95.75 49.96875 -95.75 C 52.050781 -95.75 54.164062 -95.460938 56.3125 -94.890625 L 56.3125 -80.546875 C 54.21875 -81.128906 51.4375 -81.421875 47.96875 -81.421875 C 41.476562 -81.421875 36.523438 -78.625 33.109375 -73.03125 C 29.691406 -67.4375 27.984375 -59.425781 27.984375 -49 L 27.984375 0 Z M 12.34375 0 "/></g></g></g><g fill="#ffffff" fill-opacity="1"><g transform="translate(1973.980491, 981.749897)"><g><path d="M 35.96875 1.734375 C 26.53125 1.734375 19.4375 -0.753906 14.6875 -5.734375 C 9.9375 -10.710938 7.5625 -17.546875 7.5625 -26.234375 C 7.5625 -35.972656 10.757812 -43.445312 17.15625 -48.65625 C 23.5625 -53.875 33.890625 -56.65625 48.140625 -57 L 69.25 -57.34375 L 69.25 -62.46875 C 69.25 -70.113281 67.625 -75.585938 64.375 -78.890625 C 61.132812 -82.191406 56.039062 -83.84375 49.09375 -83.84375 C 42.082031 -83.84375 36.984375 -82.65625 33.796875 -80.28125 C 30.609375 -77.90625 28.695312 -74.113281 28.0625 -68.90625 L 11.734375 -70.375 C 14.398438 -87.289062 26.96875 -95.75 49.4375 -95.75 C 61.257812 -95.75 70.148438 -93.039062 76.109375 -87.625 C 82.078125 -82.207031 85.0625 -74.375 85.0625 -64.125 L 85.0625 -23.640625 C 85.0625 -19.003906 85.671875 -15.507812 86.890625 -13.15625 C 88.109375 -10.8125 90.425781 -9.640625 93.84375 -9.640625 C 95.351562 -9.640625 97.0625 -9.84375 98.96875 -10.25 L 98.96875 -0.515625 C 95.03125 0.410156 91.003906 0.875 86.890625 0.875 C 81.097656 0.875 76.882812 -0.644531 74.25 -3.6875 C 71.613281 -6.726562 70.125 -11.492188 69.78125 -17.984375 L 69.25 -17.984375 C 65.25 -10.804688 60.597656 -5.722656 55.296875 -2.734375 C 50.003906 0.242188 43.5625 1.734375 35.96875 1.734375 Z M 39.53125 -10 C 45.269531 -10 50.367188 -11.300781 54.828125 -13.90625 C 59.285156 -16.507812 62.800781 -20.082031 65.375 -24.625 C 67.957031 -29.175781 69.25 -33.859375 69.25 -38.671875 L 69.25 -46.40625 L 52.140625 -46.046875 C 44.773438 -45.929688 39.195312 -45.175781 35.40625 -43.78125 C 31.613281 -42.394531 28.703125 -40.253906 26.671875 -37.359375 C 24.648438 -34.460938 23.640625 -30.671875 23.640625 -25.984375 C 23.640625 -20.878906 25.015625 -16.9375 27.765625 -14.15625 C 30.515625 -11.382812 34.4375 -10 39.53125 -10 Z M 39.53125 -10 "/></g></g></g><g fill="#ffffff" fill-opacity="1"><g transform="translate(2072.947341, 981.749897)"><g><path d="M 91.5 -47.4375 C 91.5 -14.65625 79.96875 1.734375 56.90625 1.734375 C 49.78125 1.734375 43.859375 0.445312 39.140625 -2.125 C 34.421875 -4.707031 30.582031 -8.863281 27.625 -14.59375 L 27.453125 -14.59375 C 27.453125 -12.800781 27.335938 -10.066406 27.109375 -6.390625 C 26.878906 -2.710938 26.707031 -0.582031 26.59375 0 L 11.46875 0 C 11.8125 -3.125 11.984375 -9.582031 11.984375 -19.375 L 11.984375 -128.953125 L 27.625 -128.953125 L 27.625 -92.1875 C 27.625 -88.425781 27.507812 -83.992188 27.28125 -78.890625 L 27.625 -78.890625 C 30.519531 -84.921875 34.359375 -89.238281 39.140625 -91.84375 C 43.921875 -94.445312 49.84375 -95.75 56.90625 -95.75 C 68.78125 -95.75 77.515625 -91.75 83.109375 -83.75 C 88.703125 -75.757812 91.5 -63.65625 91.5 -47.4375 Z M 75.078125 -46.921875 C 75.078125 -60.066406 73.335938 -69.476562 69.859375 -75.15625 C 66.378906 -80.832031 60.734375 -83.671875 52.921875 -83.671875 C 44.109375 -83.671875 37.6875 -80.660156 33.65625 -74.640625 C 29.632812 -68.617188 27.625 -59.0625 27.625 -45.96875 C 27.625 -33.625 29.59375 -24.507812 33.53125 -18.625 C 37.476562 -12.75 43.882812 -9.8125 52.75 -9.8125 C 60.625 -9.8125 66.3125 -12.722656 69.8125 -18.546875 C 73.320312 -24.367188 75.078125 -33.828125 75.078125 -46.921875 Z M 75.078125 -46.921875 "/></g></g></g><g fill="#ffffff" fill-opacity="1"><g transform="translate(2171.914191, 981.749897)"><g><path d="M 35.96875 1.734375 C 26.53125 1.734375 19.4375 -0.753906 14.6875 -5.734375 C 9.9375 -10.710938 7.5625 -17.546875 7.5625 -26.234375 C 7.5625 -35.972656 10.757812 -43.445312 17.15625 -48.65625 C 23.5625 -53.875 33.890625 -56.65625 48.140625 -57 L 69.25 -57.34375 L 69.25 -62.46875 C 69.25 -70.113281 67.625 -75.585938 64.375 -78.890625 C 61.132812 -82.191406 56.039062 -83.84375 49.09375 -83.84375 C 42.082031 -83.84375 36.984375 -82.65625 33.796875 -80.28125 C 30.609375 -77.90625 28.695312 -74.113281 28.0625 -68.90625 L 11.734375 -70.375 C 14.398438 -87.289062 26.96875 -95.75 49.4375 -95.75 C 61.257812 -95.75 70.148438 -93.039062 76.109375 -87.625 C 82.078125 -82.207031 85.0625 -74.375 85.0625 -64.125 L 85.0625 -23.640625 C 85.0625 -19.003906 85.671875 -15.507812 86.890625 -13.15625 C 88.109375 -10.8125 90.425781 -9.640625 93.84375 -9.640625 C 95.351562 -9.640625 97.0625 -9.84375 98.96875 -10.25 L 98.96875 -0.515625 C 95.03125 0.410156 91.003906 0.875 86.890625 0.875 C 81.097656 0.875 76.882812 -0.644531 74.25 -3.6875 C 71.613281 -6.726562 70.125 -11.492188 69.78125 -17.984375 L 69.25 -17.984375 C 65.25 -10.804688 60.597656 -5.722656 55.296875 -2.734375 C 50.003906 0.242188 43.5625 1.734375 35.96875 1.734375 Z M 39.53125 -10 C 45.269531 -10 50.367188 -11.300781 54.828125 -13.90625 C 59.285156 -16.507812 62.800781 -20.082031 65.375 -24.625 C 67.957031 -29.175781 69.25 -33.859375 69.25 -38.671875 L 69.25 -46.40625 L 52.140625 -46.046875 C 44.773438 -45.929688 39.195312 -45.175781 35.40625 -43.78125 C 31.613281 -42.394531 28.703125 -40.253906 26.671875 -37.359375 C 24.648438 -34.460938 23.640625 -30.671875 23.640625 -25.984375 C 23.640625 -20.878906 25.015625 -16.9375 27.765625 -14.15625 C 30.515625 -11.382812 34.4375 -10 39.53125 -10 Z M 39.53125 -10 "/></g></g></g><g fill="#ffffff" fill-opacity="1"><g transform="translate(2270.881041, 981.749897)"><g><path d="M 11.90625 -114 L 11.90625 -128.953125 L 27.546875 -128.953125 L 27.546875 -114 Z M 27.546875 11.640625 C 27.546875 20.503906 25.804688 26.929688 22.328125 30.921875 C 18.859375 34.921875 13.644531 36.921875 6.6875 36.921875 C 2.226562 36.921875 -1.445312 36.660156 -4.34375 36.140625 L -4.34375 24.0625 L 1.046875 24.59375 C 5.035156 24.59375 7.84375 23.546875 9.46875 21.453125 C 11.09375 19.367188 11.90625 15.316406 11.90625 9.296875 L 11.90625 -94.015625 L 27.546875 -94.015625 Z M 27.546875 11.640625 "/></g></g></g><g fill="#ffffff" fill-opacity="1"><g transform="translate(2310.415705, 981.749897)"><g><path d="M 91.5 -47.09375 C 91.5 -30.644531 87.878906 -18.394531 80.640625 -10.34375 C 73.398438 -2.289062 62.882812 1.734375 49.09375 1.734375 C 35.363281 1.734375 24.992188 -2.445312 17.984375 -10.8125 C 10.972656 -19.1875 7.46875 -31.28125 7.46875 -47.09375 C 7.46875 -79.53125 21.515625 -95.75 49.609375 -95.75 C 63.972656 -95.75 74.546875 -91.796875 81.328125 -83.890625 C 88.109375 -75.984375 91.5 -63.71875 91.5 -47.09375 Z M 75.078125 -47.09375 C 75.078125 -60.070312 73.148438 -69.5 69.296875 -75.375 C 65.441406 -81.257812 58.96875 -84.203125 49.875 -84.203125 C 40.71875 -84.203125 34.097656 -81.203125 30.015625 -75.203125 C 25.929688 -69.210938 23.890625 -59.84375 23.890625 -47.09375 C 23.890625 -34.695312 25.898438 -25.382812 29.921875 -19.15625 C 33.953125 -12.925781 40.285156 -9.8125 48.921875 -9.8125 C 58.304688 -9.8125 65.007812 -12.820312 69.03125 -18.84375 C 73.0625 -24.875 75.078125 -34.289062 75.078125 -47.09375 Z M 75.078125 -47.09375 "/></g></g></g><g fill="#ffffff" fill-opacity="1"><g transform="translate(85.007868, 1203.749878)"><g><path d="M 101.40625 0 L 87.40625 -35.796875 L 31.625 -35.796875 L 17.546875 0 L 0.34375 0 L 50.3125 -122.421875 L 69.171875 -122.421875 L 118.34375 0 Z M 59.515625 -109.921875 L 58.734375 -107.484375 C 57.285156 -102.671875 55.144531 -96.503906 52.3125 -88.984375 L 36.671875 -48.75 L 82.453125 -48.75 L 66.734375 -89.15625 C 65.109375 -93.144531 63.484375 -97.660156 61.859375 -102.703125 Z M 59.515625 -109.921875 "/></g></g></g><g fill="#ffffff" fill-opacity="1"><g transform="translate(203.698596, 1203.749878)"><g><path d="M 27.28125 -94.015625 L 27.28125 -34.40625 C 27.28125 -28.207031 27.890625 -23.398438 29.109375 -19.984375 C 30.328125 -16.566406 32.265625 -14.101562 34.921875 -12.59375 C 37.585938 -11.09375 41.5 -10.34375 46.65625 -10.34375 C 54.1875 -10.34375 60.125 -12.921875 64.46875 -18.078125 C 68.8125 -23.234375 70.984375 -30.382812 70.984375 -39.53125 L 70.984375 -94.015625 L 86.625 -94.015625 L 86.625 -20.078125 C 86.625 -9.128906 86.800781 -2.4375 87.15625 0 L 72.375 0 C 72.320312 -0.289062 72.265625 -1.070312 72.203125 -2.34375 C 72.148438 -3.613281 72.078125 -5.070312 71.984375 -6.71875 C 71.898438 -8.375 71.800781 -11.492188 71.6875 -16.078125 L 71.421875 -16.078125 C 67.828125 -9.585938 63.671875 -4.992188 58.953125 -2.296875 C 54.234375 0.390625 48.367188 1.734375 41.359375 1.734375 C 31.046875 1.734375 23.5 -0.828125 18.71875 -5.953125 C 13.945312 -11.078125 11.5625 -19.550781 11.5625 -31.375 L 11.5625 -94.015625 Z M 27.28125 -94.015625 "/></g></g></g><g fill="#ffffff" fill-opacity="1"><g transform="translate(302.665457, 1203.749878)"><g><path d="M 48.140625 -0.6875 C 42.984375 0.695312 37.710938 1.390625 32.328125 1.390625 C 19.816406 1.390625 13.5625 -5.703125 13.5625 -19.890625 L 13.5625 -82.640625 L 2.6875 -82.640625 L 2.6875 -94.015625 L 14.15625 -94.015625 L 18.765625 -115.046875 L 29.203125 -115.046875 L 29.203125 -94.015625 L 46.578125 -94.015625 L 46.578125 -82.640625 L 29.203125 -82.640625 L 29.203125 -23.28125 C 29.203125 -18.769531 29.9375 -15.597656 31.40625 -13.765625 C 32.882812 -11.941406 35.445312 -11.03125 39.09375 -11.03125 C 41.1875 -11.03125 44.203125 -11.4375 48.140625 -12.25 Z M 48.140625 -0.6875 "/></g></g></g><g fill="#ffffff" fill-opacity="1"><g transform="translate(352.10544, 1203.749878)"><g><path d="M 91.5 -47.09375 C 91.5 -30.644531 87.878906 -18.394531 80.640625 -10.34375 C 73.398438 -2.289062 62.882812 1.734375 49.09375 1.734375 C 35.363281 1.734375 24.992188 -2.445312 17.984375 -10.8125 C 10.972656 -19.1875 7.46875 -31.28125 7.46875 -47.09375 C 7.46875 -79.53125 21.515625 -95.75 49.609375 -95.75 C 63.972656 -95.75 74.546875 -91.796875 81.328125 -83.890625 C 88.109375 -75.984375 91.5 -63.71875 91.5 -47.09375 Z M 75.078125 -47.09375 C 75.078125 -60.070312 73.148438 -69.5 69.296875 -75.375 C 65.441406 -81.257812 58.96875 -84.203125 49.875 -84.203125 C 40.71875 -84.203125 34.097656 -81.203125 30.015625 -75.203125 C 25.929688 -69.210938 23.890625 -59.84375 23.890625 -47.09375 C 23.890625 -34.695312 25.898438 -25.382812 29.921875 -19.15625 C 33.953125 -12.925781 40.285156 -9.8125 48.921875 -9.8125 C 58.304688 -9.8125 65.007812 -12.820312 69.03125 -18.84375 C 73.0625 -24.875 75.078125 -34.289062 75.078125 -47.09375 Z M 37.4375 -104.359375 L 37.4375 -106.09375 L 56.296875 -131.03125 L 74.28125 -131.03125 L 74.28125 -128.515625 L 45.609375 -104.359375 Z M 37.4375 -104.359375 "/></g></g></g><g fill="#ffffff" fill-opacity="1"><g transform="translate(451.072313, 1203.749878)"><g><path d="M 71.6875 0 L 71.6875 -59.609375 C 71.6875 -65.804688 71.078125 -70.613281 69.859375 -74.03125 C 68.640625 -77.445312 66.695312 -79.90625 64.03125 -81.40625 C 61.375 -82.914062 57.46875 -83.671875 52.3125 -83.671875 C 44.78125 -83.671875 38.84375 -81.09375 34.5 -75.9375 C 30.15625 -70.78125 27.984375 -63.628906 27.984375 -54.484375 L 27.984375 0 L 12.34375 0 L 12.34375 -73.9375 C 12.34375 -84.882812 12.164062 -91.578125 11.8125 -94.015625 L 26.59375 -94.015625 C 26.644531 -93.722656 26.695312 -92.941406 26.75 -91.671875 C 26.8125 -90.398438 26.882812 -88.9375 26.96875 -87.28125 C 27.0625 -85.632812 27.164062 -82.519531 27.28125 -77.9375 L 27.546875 -77.9375 C 31.140625 -84.425781 35.296875 -89.015625 40.015625 -91.703125 C 44.734375 -94.398438 50.597656 -95.75 57.609375 -95.75 C 67.921875 -95.75 75.460938 -93.1875 80.234375 -88.0625 C 85.015625 -82.9375 87.40625 -74.46875 87.40625 -62.65625 L 87.40625 0 Z M 71.6875 0 "/></g></g></g><g fill="#ffffff" fill-opacity="1"><g transform="translate(550.039185, 1203.749878)"><g><path d="M 91.5 -47.09375 C 91.5 -30.644531 87.878906 -18.394531 80.640625 -10.34375 C 73.398438 -2.289062 62.882812 1.734375 49.09375 1.734375 C 35.363281 1.734375 24.992188 -2.445312 17.984375 -10.8125 C 10.972656 -19.1875 7.46875 -31.28125 7.46875 -47.09375 C 7.46875 -79.53125 21.515625 -95.75 49.609375 -95.75 C 63.972656 -95.75 74.546875 -91.796875 81.328125 -83.890625 C 88.109375 -75.984375 91.5 -63.71875 91.5 -47.09375 Z M 75.078125 -47.09375 C 75.078125 -60.070312 73.148438 -69.5 69.296875 -75.375 C 65.441406 -81.257812 58.96875 -84.203125 49.875 -84.203125 C 40.71875 -84.203125 34.097656 -81.203125 30.015625 -75.203125 C 25.929688 -69.210938 23.890625 -59.84375 23.890625 -47.09375 C 23.890625 -34.695312 25.898438 -25.382812 29.921875 -19.15625 C 33.953125 -12.925781 40.285156 -9.8125 48.921875 -9.8125 C 58.304688 -9.8125 65.007812 -12.820312 69.03125 -18.84375 C 73.0625 -24.875 75.078125 -34.289062 75.078125 -47.09375 Z M 75.078125 -47.09375 "/></g></g></g><g fill="#ffffff" fill-opacity="1"><g transform="translate(649.006081, 1203.749878)"><g><path d="M 66.734375 0 L 66.734375 -59.609375 C 66.734375 -68.703125 65.488281 -74.984375 63 -78.453125 C 60.507812 -81.929688 56.019531 -83.671875 49.53125 -83.671875 C 42.863281 -83.671875 37.585938 -81.125 33.703125 -76.03125 C 29.828125 -70.9375 27.890625 -63.753906 27.890625 -54.484375 L 27.890625 0 L 12.34375 0 L 12.34375 -73.9375 C 12.34375 -84.882812 12.164062 -91.578125 11.8125 -94.015625 L 26.59375 -94.015625 C 26.644531 -93.722656 26.695312 -92.941406 26.75 -91.671875 C 26.8125 -90.398438 26.882812 -88.9375 26.96875 -87.28125 C 27.0625 -85.632812 27.164062 -82.519531 27.28125 -77.9375 L 27.546875 -77.9375 C 30.898438 -84.601562 34.75 -89.238281 39.09375 -91.84375 C 43.445312 -94.445312 48.75 -95.75 55 -95.75 C 62.125 -95.75 67.753906 -94.328125 71.890625 -91.484375 C 76.035156 -88.648438 78.921875 -84.132812 80.546875 -77.9375 L 80.8125 -77.9375 C 84.050781 -84.25 87.972656 -88.796875 92.578125 -91.578125 C 97.179688 -94.359375 102.757812 -95.75 109.3125 -95.75 C 118.8125 -95.75 125.71875 -93.171875 130.03125 -88.015625 C 134.34375 -82.859375 136.5 -74.40625 136.5 -62.65625 L 136.5 0 L 121.046875 0 L 121.046875 -59.609375 C 121.046875 -68.703125 119.796875 -74.984375 117.296875 -78.453125 C 114.804688 -81.929688 110.316406 -83.671875 103.828125 -83.671875 C 96.992188 -83.671875 91.679688 -81.132812 87.890625 -76.0625 C 84.097656 -71 82.203125 -63.804688 82.203125 -54.484375 L 82.203125 0 Z M 66.734375 0 "/></g></g></g><g fill="#ffffff" fill-opacity="1"><g transform="translate(797.239143, 1203.749878)"><g><path d="M 91.5 -47.09375 C 91.5 -30.644531 87.878906 -18.394531 80.640625 -10.34375 C 73.398438 -2.289062 62.882812 1.734375 49.09375 1.734375 C 35.363281 1.734375 24.992188 -2.445312 17.984375 -10.8125 C 10.972656 -19.1875 7.46875 -31.28125 7.46875 -47.09375 C 7.46875 -79.53125 21.515625 -95.75 49.609375 -95.75 C 63.972656 -95.75 74.546875 -91.796875 81.328125 -83.890625 C 88.109375 -75.984375 91.5 -63.71875 91.5 -47.09375 Z M 75.078125 -47.09375 C 75.078125 -60.070312 73.148438 -69.5 69.296875 -75.375 C 65.441406 -81.257812 58.96875 -84.203125 49.875 -84.203125 C 40.71875 -84.203125 34.097656 -81.203125 30.015625 -75.203125 C 25.929688 -69.210938 23.890625 -59.84375 23.890625 -47.09375 C 23.890625 -34.695312 25.898438 -25.382812 29.921875 -19.15625 C 33.953125 -12.925781 40.285156 -9.8125 48.921875 -9.8125 C 58.304688 -9.8125 65.007812 -12.820312 69.03125 -18.84375 C 73.0625 -24.875 75.078125 -34.289062 75.078125 -47.09375 Z M 75.078125 -47.09375 "/></g></g></g><g fill="#ffffff" fill-opacity="1"><g transform="translate(896.206039, 1203.749878)"><g/></g></g><g fill="#ffffff" fill-opacity="1"><g transform="translate(945.646068, 1203.749878)"><g><path d="M 16.59375 36.921875 C 12.3125 36.921875 8.722656 36.601562 5.828125 35.96875 L 5.828125 24.25 C 8.023438 24.59375 10.457031 24.765625 13.125 24.765625 C 22.851562 24.765625 30.554688 17.609375 36.234375 3.296875 L 37.703125 -0.4375 L 0.4375 -94.015625 L 17.125 -94.015625 L 36.921875 -42.0625 C 37.210938 -41.25 37.5625 -40.273438 37.96875 -39.140625 C 38.375 -38.015625 39.675781 -34.234375 41.875 -27.796875 C 44.082031 -21.367188 45.269531 -17.78125 45.4375 -17.03125 L 51.53125 -34.140625 L 72.125 -94.015625 L 88.625 -94.015625 L 52.484375 0 C 48.597656 10.019531 44.972656 17.476562 41.609375 22.375 C 38.253906 27.269531 34.535156 30.914062 30.453125 33.3125 C 26.367188 35.71875 21.75 36.921875 16.59375 36.921875 Z M 16.59375 36.921875 "/></g></g></g><g fill="#ffffff" fill-opacity="1"><g transform="translate(1034.62067, 1203.749878)"><g/></g></g><g fill="#ffffff" fill-opacity="1"><g transform="translate(1084.060699, 1203.749878)"><g><path d="M 14.59375 0 L 14.59375 -122.421875 L 107.484375 -122.421875 L 107.484375 -108.875 L 31.1875 -108.875 L 31.1875 -69.59375 L 102.265625 -69.59375 L 102.265625 -56.21875 L 31.1875 -56.21875 L 31.1875 -13.5625 L 111.046875 -13.5625 L 111.046875 0 Z M 14.59375 0 "/></g></g></g><g fill="#ffffff" fill-opacity="1"><g transform="translate(1202.751392, 1203.749878)"><g><path d="M 23.890625 -47.4375 C 23.890625 -34.925781 25.859375 -25.65625 29.796875 -19.625 C 33.742188 -13.601562 39.679688 -10.59375 47.609375 -10.59375 C 53.171875 -10.59375 57.820312 -12.097656 61.5625 -15.109375 C 65.300781 -18.128906 67.601562 -22.765625 68.46875 -29.015625 L 84.28125 -27.984375 C 83.0625 -18.941406 79.207031 -11.726562 72.71875 -6.34375 C 66.238281 -0.957031 58.015625 1.734375 48.046875 1.734375 C 34.898438 1.734375 24.863281 -2.421875 17.9375 -10.734375 C 11.019531 -19.046875 7.5625 -31.164062 7.5625 -47.09375 C 7.5625 -62.90625 11.035156 -74.96875 17.984375 -83.28125 C 24.929688 -91.59375 34.894531 -95.75 47.875 -95.75 C 57.488281 -95.75 65.46875 -93.257812 71.8125 -88.28125 C 78.15625 -83.300781 82.140625 -76.4375 83.765625 -67.6875 L 67.6875 -66.46875 C 66.875 -71.6875 64.816406 -75.828125 61.515625 -78.890625 C 58.210938 -81.960938 53.519531 -83.5 47.4375 -83.5 C 39.15625 -83.5 33.160156 -80.75 29.453125 -75.25 C 25.742188 -69.75 23.890625 -60.476562 23.890625 -47.4375 Z M 23.890625 -47.4375 "/></g></g></g><g fill="#ffffff" fill-opacity="1"><g transform="translate(1291.725995, 1203.749878)"><g><path d="M 91.5 -47.09375 C 91.5 -30.644531 87.878906 -18.394531 80.640625 -10.34375 C 73.398438 -2.289062 62.882812 1.734375 49.09375 1.734375 C 35.363281 1.734375 24.992188 -2.445312 17.984375 -10.8125 C 10.972656 -19.1875 7.46875 -31.28125 7.46875 -47.09375 C 7.46875 -79.53125 21.515625 -95.75 49.609375 -95.75 C 63.972656 -95.75 74.546875 -91.796875 81.328125 -83.890625 C 88.109375 -75.984375 91.5 -63.71875 91.5 -47.09375 Z M 75.078125 -47.09375 C 75.078125 -60.070312 73.148438 -69.5 69.296875 -75.375 C 65.441406 -81.257812 58.96875 -84.203125 49.875 -84.203125 C 40.71875 -84.203125 34.097656 -81.203125 30.015625 -75.203125 C 25.929688 -69.210938 23.890625 -59.84375 23.890625 -47.09375 C 23.890625 -34.695312 25.898438 -25.382812 29.921875 -19.15625 C 33.953125 -12.925781 40.285156 -9.8125 48.921875 -9.8125 C 58.304688 -9.8125 65.007812 -12.820312 69.03125 -18.84375 C 73.0625 -24.875 75.078125 -34.289062 75.078125 -47.09375 Z M 75.078125 -47.09375 "/></g></g></g><g fill="#ffffff" fill-opacity="1"><g transform="translate(1390.692844, 1203.749878)"><g><path d="M 71.6875 0 L 71.6875 -59.609375 C 71.6875 -65.804688 71.078125 -70.613281 69.859375 -74.03125 C 68.640625 -77.445312 66.695312 -79.90625 64.03125 -81.40625 C 61.375 -82.914062 57.46875 -83.671875 52.3125 -83.671875 C 44.78125 -83.671875 38.84375 -81.09375 34.5 -75.9375 C 30.15625 -70.78125 27.984375 -63.628906 27.984375 -54.484375 L 27.984375 0 L 12.34375 0 L 12.34375 -73.9375 C 12.34375 -84.882812 12.164062 -91.578125 11.8125 -94.015625 L 26.59375 -94.015625 C 26.644531 -93.722656 26.695312 -92.941406 26.75 -91.671875 C 26.8125 -90.398438 26.882812 -88.9375 26.96875 -87.28125 C 27.0625 -85.632812 27.164062 -82.519531 27.28125 -77.9375 L 27.546875 -77.9375 C 31.140625 -84.425781 35.296875 -89.015625 40.015625 -91.703125 C 44.734375 -94.398438 50.597656 -95.75 57.609375 -95.75 C 67.921875 -95.75 75.460938 -93.1875 80.234375 -88.0625 C 85.015625 -82.9375 87.40625 -74.46875 87.40625 -62.65625 L 87.40625 0 Z M 71.6875 0 "/></g></g></g><g fill="#ffffff" fill-opacity="1"><g transform="translate(1489.659694, 1203.749878)"><g><path d="M 91.5 -47.09375 C 91.5 -30.644531 87.878906 -18.394531 80.640625 -10.34375 C 73.398438 -2.289062 62.882812 1.734375 49.09375 1.734375 C 35.363281 1.734375 24.992188 -2.445312 17.984375 -10.8125 C 10.972656 -19.1875 7.46875 -31.28125 7.46875 -47.09375 C 7.46875 -79.53125 21.515625 -95.75 49.609375 -95.75 C 63.972656 -95.75 74.546875 -91.796875 81.328125 -83.890625 C 88.109375 -75.984375 91.5 -63.71875 91.5 -47.09375 Z M 75.078125 -47.09375 C 75.078125 -60.070312 73.148438 -69.5 69.296875 -75.375 C 65.441406 -81.257812 58.96875 -84.203125 49.875 -84.203125 C 40.71875 -84.203125 34.097656 -81.203125 30.015625 -75.203125 C 25.929688 -69.210938 23.890625 -59.84375 23.890625 -47.09375 C 23.890625 -34.695312 25.898438 -25.382812 29.921875 -19.15625 C 33.953125 -12.925781 40.285156 -9.8125 48.921875 -9.8125 C 58.304688 -9.8125 65.007812 -12.820312 69.03125 -18.84375 C 73.0625 -24.875 75.078125 -34.289062 75.078125 -47.09375 Z M 75.078125 -47.09375 "/></g></g></g><g fill="#ffffff" fill-opacity="1"><g transform="translate(1588.626544, 1203.749878)"><g><path d="M 66.734375 0 L 66.734375 -59.609375 C 66.734375 -68.703125 65.488281 -74.984375 63 -78.453125 C 60.507812 -81.929688 56.019531 -83.671875 49.53125 -83.671875 C 42.863281 -83.671875 37.585938 -81.125 33.703125 -76.03125 C 29.828125 -70.9375 27.890625 -63.753906 27.890625 -54.484375 L 27.890625 0 L 12.34375 0 L 12.34375 -73.9375 C 12.34375 -84.882812 12.164062 -91.578125 11.8125 -94.015625 L 26.59375 -94.015625 C 26.644531 -93.722656 26.695312 -92.941406 26.75 -91.671875 C 26.8125 -90.398438 26.882812 -88.9375 26.96875 -87.28125 C 27.0625 -85.632812 27.164062 -82.519531 27.28125 -77.9375 L 27.546875 -77.9375 C 30.898438 -84.601562 34.75 -89.238281 39.09375 -91.84375 C 43.445312 -94.445312 48.75 -95.75 55 -95.75 C 62.125 -95.75 67.753906 -94.328125 71.890625 -91.484375 C 76.035156 -88.648438 78.921875 -84.132812 80.546875 -77.9375 L 80.8125 -77.9375 C 84.050781 -84.25 87.972656 -88.796875 92.578125 -91.578125 C 97.179688 -94.359375 102.757812 -95.75 109.3125 -95.75 C 118.8125 -95.75 125.71875 -93.171875 130.03125 -88.015625 C 134.34375 -82.859375 136.5 -74.40625 136.5 -62.65625 L 136.5 0 L 121.046875 0 L 121.046875 -59.609375 C 121.046875 -68.703125 119.796875 -74.984375 117.296875 -78.453125 C 114.804688 -81.929688 110.316406 -83.671875 103.828125 -83.671875 C 96.992188 -83.671875 91.679688 -81.132812 87.890625 -76.0625 C 84.097656 -71 82.203125 -63.804688 82.203125 -54.484375 L 82.203125 0 Z M 66.734375 0 "/></g></g></g><g fill="#ffffff" fill-opacity="1"><g transform="translate(1736.859659, 1203.749878)"><g><path d="M 16.859375 0 L 16.859375 -94.015625 L 32.5 -94.015625 L 32.5 0 Z M 11.71875 -104.359375 L 11.71875 -106.09375 L 30.578125 -131.03125 L 48.5625 -131.03125 L 48.5625 -128.515625 L 19.890625 -104.359375 Z M 11.71875 -104.359375 "/></g></g></g><g fill="#ffffff" fill-opacity="1"><g transform="translate(1786.299596, 1203.749878)"><g><path d="M 35.96875 1.734375 C 26.53125 1.734375 19.4375 -0.753906 14.6875 -5.734375 C 9.9375 -10.710938 7.5625 -17.546875 7.5625 -26.234375 C 7.5625 -35.972656 10.757812 -43.445312 17.15625 -48.65625 C 23.5625 -53.875 33.890625 -56.65625 48.140625 -57 L 69.25 -57.34375 L 69.25 -62.46875 C 69.25 -70.113281 67.625 -75.585938 64.375 -78.890625 C 61.132812 -82.191406 56.039062 -83.84375 49.09375 -83.84375 C 42.082031 -83.84375 36.984375 -82.65625 33.796875 -80.28125 C 30.609375 -77.90625 28.695312 -74.113281 28.0625 -68.90625 L 11.734375 -70.375 C 14.398438 -87.289062 26.96875 -95.75 49.4375 -95.75 C 61.257812 -95.75 70.148438 -93.039062 76.109375 -87.625 C 82.078125 -82.207031 85.0625 -74.375 85.0625 -64.125 L 85.0625 -23.640625 C 85.0625 -19.003906 85.671875 -15.507812 86.890625 -13.15625 C 88.109375 -10.8125 90.425781 -9.640625 93.84375 -9.640625 C 95.351562 -9.640625 97.0625 -9.84375 98.96875 -10.25 L 98.96875 -0.515625 C 95.03125 0.410156 91.003906 0.875 86.890625 0.875 C 81.097656 0.875 76.882812 -0.644531 74.25 -3.6875 C 71.613281 -6.726562 70.125 -11.492188 69.78125 -17.984375 L 69.25 -17.984375 C 65.25 -10.804688 60.597656 -5.722656 55.296875 -2.734375 C 50.003906 0.242188 43.5625 1.734375 35.96875 1.734375 Z M 39.53125 -10 C 45.269531 -10 50.367188 -11.300781 54.828125 -13.90625 C 59.285156 -16.507812 62.800781 -20.082031 65.375 -24.625 C 67.957031 -29.175781 69.25 -33.859375 69.25 -38.671875 L 69.25 -46.40625 L 52.140625 -46.046875 C 44.773438 -45.929688 39.195312 -45.175781 35.40625 -43.78125 C 31.613281 -42.394531 28.703125 -40.253906 26.671875 -37.359375 C 24.648438 -34.460938 23.640625 -30.671875 23.640625 -25.984375 C 23.640625 -20.878906 25.015625 -16.9375 27.765625 -14.15625 C 30.515625 -11.382812 34.4375 -10 39.53125 -10 Z M 39.53125 -10 "/></g></g></g><g fill="#ffffff" fill-opacity="1"><g transform="translate(1885.266446, 1203.749878)"><g/></g></g><g fill="#ffffff" fill-opacity="1"><g transform="translate(1934.706384, 1203.749878)"><g><path d="M 110.53125 -33.796875 C 110.53125 -22.503906 106.113281 -13.757812 97.28125 -7.5625 C 88.445312 -1.363281 76.003906 1.734375 59.953125 1.734375 C 30.117188 1.734375 12.828125 -8.632812 8.078125 -29.375 L 24.15625 -32.578125 C 26.007812 -25.222656 29.945312 -19.820312 35.96875 -16.375 C 42 -12.925781 50.195312 -11.203125 60.5625 -11.203125 C 71.28125 -11.203125 79.550781 -13.039062 85.375 -16.71875 C 91.195312 -20.40625 94.109375 -25.8125 94.109375 -32.9375 C 94.109375 -36.925781 93.191406 -40.164062 91.359375 -42.65625 C 89.535156 -45.15625 86.972656 -47.210938 83.671875 -48.828125 C 80.367188 -50.453125 76.429688 -51.8125 71.859375 -52.90625 C 67.285156 -54.007812 62.21875 -55.203125 56.65625 -56.484375 C 46.976562 -58.617188 39.632812 -60.757812 34.625 -62.90625 C 29.613281 -65.050781 25.660156 -67.441406 22.765625 -70.078125 C 19.867188 -72.710938 17.648438 -75.796875 16.109375 -79.328125 C 14.578125 -82.859375 13.8125 -86.914062 13.8125 -91.5 C 13.8125 -101.976562 17.820312 -110.054688 25.84375 -115.734375 C 33.875 -121.410156 45.359375 -124.25 60.296875 -124.25 C 74.203125 -124.25 84.832031 -122.117188 92.1875 -117.859375 C 99.550781 -113.609375 104.707031 -106.359375 107.65625 -96.109375 L 91.328125 -93.234375 C 89.523438 -99.722656 86.101562 -104.425781 81.0625 -107.34375 C 76.03125 -110.269531 69.050781 -111.734375 60.125 -111.734375 C 50.332031 -111.734375 42.859375 -110.113281 37.703125 -106.875 C 32.554688 -103.632812 29.984375 -98.796875 29.984375 -92.359375 C 29.984375 -88.597656 30.976562 -85.484375 32.96875 -83.015625 C 34.96875 -80.554688 37.847656 -78.472656 41.609375 -76.765625 C 45.378906 -75.054688 52.882812 -72.957031 64.125 -70.46875 C 67.894531 -69.601562 71.644531 -68.71875 75.375 -67.8125 C 79.113281 -66.914062 82.691406 -65.84375 86.109375 -64.59375 C 89.523438 -63.351562 92.722656 -61.894531 95.703125 -60.21875 C 98.691406 -58.539062 101.285156 -56.484375 103.484375 -54.046875 C 105.691406 -51.609375 107.414062 -48.738281 108.65625 -45.4375 C 109.90625 -42.132812 110.53125 -38.253906 110.53125 -33.796875 Z M 110.53125 -33.796875 "/></g></g></g><g fill="#ffffff" fill-opacity="1"><g transform="translate(2053.39717, 1203.749878)"><g><path d="M 91.5 -47.09375 C 91.5 -30.644531 87.878906 -18.394531 80.640625 -10.34375 C 73.398438 -2.289062 62.882812 1.734375 49.09375 1.734375 C 35.363281 1.734375 24.992188 -2.445312 17.984375 -10.8125 C 10.972656 -19.1875 7.46875 -31.28125 7.46875 -47.09375 C 7.46875 -79.53125 21.515625 -95.75 49.609375 -95.75 C 63.972656 -95.75 74.546875 -91.796875 81.328125 -83.890625 C 88.109375 -75.984375 91.5 -63.71875 91.5 -47.09375 Z M 75.078125 -47.09375 C 75.078125 -60.070312 73.148438 -69.5 69.296875 -75.375 C 65.441406 -81.257812 58.96875 -84.203125 49.875 -84.203125 C 40.71875 -84.203125 34.097656 -81.203125 30.015625 -75.203125 C 25.929688 -69.210938 23.890625 -59.84375 23.890625 -47.09375 C 23.890625 -34.695312 25.898438 -25.382812 29.921875 -19.15625 C 33.953125 -12.925781 40.285156 -9.8125 48.921875 -9.8125 C 58.304688 -9.8125 65.007812 -12.820312 69.03125 -18.84375 C 73.0625 -24.875 75.078125 -34.289062 75.078125 -47.09375 Z M 75.078125 -47.09375 "/></g></g></g><g fill="#ffffff" fill-opacity="1"><g transform="translate(2152.36402, 1203.749878)"><g><path d="M 23.890625 -47.4375 C 23.890625 -34.925781 25.859375 -25.65625 29.796875 -19.625 C 33.742188 -13.601562 39.679688 -10.59375 47.609375 -10.59375 C 53.171875 -10.59375 57.820312 -12.097656 61.5625 -15.109375 C 65.300781 -18.128906 67.601562 -22.765625 68.46875 -29.015625 L 84.28125 -27.984375 C 83.0625 -18.941406 79.207031 -11.726562 72.71875 -6.34375 C 66.238281 -0.957031 58.015625 1.734375 48.046875 1.734375 C 34.898438 1.734375 24.863281 -2.421875 17.9375 -10.734375 C 11.019531 -19.046875 7.5625 -31.164062 7.5625 -47.09375 C 7.5625 -62.90625 11.035156 -74.96875 17.984375 -83.28125 C 24.929688 -91.59375 34.894531 -95.75 47.875 -95.75 C 57.488281 -95.75 65.46875 -93.257812 71.8125 -88.28125 C 78.15625 -83.300781 82.140625 -76.4375 83.765625 -67.6875 L 67.6875 -66.46875 C 66.875 -71.6875 64.816406 -75.828125 61.515625 -78.890625 C 58.210938 -81.960938 53.519531 -83.5 47.4375 -83.5 C 39.15625 -83.5 33.160156 -80.75 29.453125 -75.25 C 25.742188 -69.75 23.890625 -60.476562 23.890625 -47.4375 Z M 23.890625 -47.4375 "/></g></g></g><g fill="#ffffff" fill-opacity="1"><g transform="translate(2241.338622, 1203.749878)"><g><path d="M 11.90625 -114 L 11.90625 -128.953125 L 27.546875 -128.953125 L 27.546875 -114 Z M 11.90625 0 L 11.90625 -94.015625 L 27.546875 -94.015625 L 27.546875 0 Z M 11.90625 0 "/></g></g></g><g fill="#ffffff" fill-opacity="1"><g transform="translate(2280.873287, 1203.749878)"><g><path d="M 35.96875 1.734375 C 26.53125 1.734375 19.4375 -0.753906 14.6875 -5.734375 C 9.9375 -10.710938 7.5625 -17.546875 7.5625 -26.234375 C 7.5625 -35.972656 10.757812 -43.445312 17.15625 -48.65625 C 23.5625 -53.875 33.890625 -56.65625 48.140625 -57 L 69.25 -57.34375 L 69.25 -62.46875 C 69.25 -70.113281 67.625 -75.585938 64.375 -78.890625 C 61.132812 -82.191406 56.039062 -83.84375 49.09375 -83.84375 C 42.082031 -83.84375 36.984375 -82.65625 33.796875 -80.28125 C 30.609375 -77.90625 28.695312 -74.113281 28.0625 -68.90625 L 11.734375 -70.375 C 14.398438 -87.289062 26.96875 -95.75 49.4375 -95.75 C 61.257812 -95.75 70.148438 -93.039062 76.109375 -87.625 C 82.078125 -82.207031 85.0625 -74.375 85.0625 -64.125 L 85.0625 -23.640625 C 85.0625 -19.003906 85.671875 -15.507812 86.890625 -13.15625 C 88.109375 -10.8125 90.425781 -9.640625 93.84375 -9.640625 C 95.351562 -9.640625 97.0625 -9.84375 98.96875 -10.25 L 98.96875 -0.515625 C 95.03125 0.410156 91.003906 0.875 86.890625 0.875 C 81.097656 0.875 76.882812 -0.644531 74.25 -3.6875 C 71.613281 -6.726562 70.125 -11.492188 69.78125 -17.984375 L 69.25 -17.984375 C 65.25 -10.804688 60.597656 -5.722656 55.296875 -2.734375 C 50.003906 0.242188 43.5625 1.734375 35.96875 1.734375 Z M 39.53125 -10 C 45.269531 -10 50.367188 -11.300781 54.828125 -13.90625 C 59.285156 -16.507812 62.800781 -20.082031 65.375 -24.625 C 67.957031 -29.175781 69.25 -33.859375 69.25 -38.671875 L 69.25 -46.40625 L 52.140625 -46.046875 C 44.773438 -45.929688 39.195312 -45.175781 35.40625 -43.78125 C 31.613281 -42.394531 28.703125 -40.253906 26.671875 -37.359375 C 24.648438 -34.460938 23.640625 -30.671875 23.640625 -25.984375 C 23.640625 -20.878906 25.015625 -16.9375 27.765625 -14.15625 C 30.515625 -11.382812 34.4375 -10 39.53125 -10 Z M 39.53125 -10 "/></g></g></g><g fill="#ffffff" fill-opacity="1"><g transform="translate(2379.840137, 1203.749878)"><g><path d="M 11.984375 0 L 11.984375 -128.953125 L 27.625 -128.953125 L 27.625 0 Z M 11.984375 0 "/></g></g></g><g fill="#ffffff" fill-opacity="1"><g transform="translate(2419.374801, 1203.749878)"><g/></g></g></svg>